<?xml version="1.0" encoding="UTF-8" standalone="no"?>
<!-- Created with Inkscape (http://www.inkscape.org/) -->

<svg
   width="1366"
   height="768"
   viewBox="0 0 1366 768"
   version="1.1"
   id="svg1"
   inkscape:version="1.3.2 (091e20ef0f, 2023-11-25, custom)"
   sodipodi:docname="StatesModel.svg"
   xmlns:inkscape="http://www.inkscape.org/namespaces/inkscape"
   xmlns:sodipodi="http://sodipodi.sourceforge.net/DTD/sodipodi-0.dtd"
   xmlns="http://www.w3.org/2000/svg"
   xmlns:svg="http://www.w3.org/2000/svg">
  <sodipodi:namedview
     id="namedview1"
     pagecolor="#505050"
     bordercolor="#ffffff"
     borderopacity="1"
     inkscape:showpageshadow="0"
     inkscape:pageopacity="0"
     inkscape:pagecheckerboard="1"
     inkscape:deskcolor="#505050"
     inkscape:document-units="px"
     showguides="true"
     inkscape:zoom="0.64395376"
     inkscape:cx="632.03296"
     inkscape:cy="368.8153"
     inkscape:window-width="1280"
     inkscape:window-height="688"
     inkscape:window-x="0"
     inkscape:window-y="32"
     inkscape:window-maximized="1"
     inkscape:current-layer="layer1" />
  <defs
     id="defs1" />
  <g
     inkscape:label="Layer 1"
     inkscape:groupmode="layer"
     id="layer1">
    <rect
       style="display:inline;fill:#000000"
       id="rect1"
       width="751.08038"
       height="764.25726"
       x="248.16399"
       y="4.392283"
       sodipodi:insensitive="true" />
    <g
       id="g31"
       transform="translate(478.90625)"
       style="display:none">
      <text
         xml:space="preserve"
         style="font-size:21.3333px;line-height:1.5;font-family:Cantarell;-inkscape-font-specification:Cantarell;letter-spacing:0.92px;fill:#000000"
         x="392.95331"
         y="441.75333"
         id="text27"><tspan
           sodipodi:role="line"
           id="tspan27"
           x="392.95331"
           y="441.75333"
           style="fill:#ffffff">Fears</tspan></text>
      <text
         xml:space="preserve"
         style="font-size:21.3333px;line-height:1.5;font-family:Cantarell;-inkscape-font-specification:Cantarell;letter-spacing:0.92px;fill:#000000"
         x="392.29453"
         y="356.10379"
         id="text28"><tspan
           sodipodi:role="line"
           id="tspan28"
           x="392.29453"
           y="356.10379"
           style="fill:#ffffff">Goals</tspan></text>
      <text
         xml:space="preserve"
         style="font-size:21.3333px;line-height:1.5;font-family:Cantarell;-inkscape-font-specification:Cantarell;letter-spacing:0.92px;fill:#000000"
         x="381.65131"
         y="286.71237"
         id="text29"><tspan
           sodipodi:role="line"
           id="tspan29"
           x="381.65131"
           y="286.71237"
           style="fill:#ffffff">Shadow</tspan></text>
      <text
         xml:space="preserve"
         style="font-size:21.3333px;line-height:1.5;font-family:Cantarell;-inkscape-font-specification:Cantarell;letter-spacing:0.92px;fill:#000000"
         x="359.6835"
         y="192.71306"
         id="text30"><tspan
           sodipodi:role="line"
           id="tspan30"
           x="359.6835"
           y="192.71306"
           style="fill:#ffffff">Environment</tspan></text>
      <text
         xml:space="preserve"
         style="font-size:21.3333px;line-height:1.5;font-family:Cantarell;-inkscape-font-specification:Cantarell;letter-spacing:0.92px;fill:#000000"
         x="386.74164"
         y="101.02251"
         id="text31"><tspan
           sodipodi:role="line"
           id="tspan31"
           x="386.74164"
           y="101.02251"
           style="fill:#ffffff">OTHER</tspan></text>
    </g>
    <g
       id="g18"
       transform="translate(422.57836)">
      <text
         xml:space="preserve"
         style="font-size:21.3333px;line-height:1.5;font-family:Cantarell;-inkscape-font-specification:Cantarell;letter-spacing:0.92px;fill:#000000"
         x="360.23184"
         y="552.82233"
         id="text13"><tspan
           sodipodi:role="line"
           id="tspan13"
           x="360.23184"
           y="552.82233"
           style="fill:#ffffff">Consciousness</tspan></text>
      <text
         xml:space="preserve"
         style="font-size:21.3333px;line-height:1.5;font-family:Cantarell;-inkscape-font-specification:Cantarell;letter-spacing:0.92px;fill:#000000"
         x="396.05911"
         y="441.75333"
         id="text14"><tspan
           sodipodi:role="line"
           id="tspan14"
           x="396.05911"
           y="441.75333"
           style="fill:#ffffff">Psyche</tspan></text>
      <text
         xml:space="preserve"
         style="font-size:21.3333px;line-height:1.5;font-family:Cantarell;-inkscape-font-specification:Cantarell;letter-spacing:0.92px;fill:#000000"
         x="416.24686"
         y="356.10379"
         id="text15"><tspan
           sodipodi:role="line"
           id="tspan15"
           x="416.24686"
           y="356.10379"
           style="fill:#ffffff">Ego</tspan></text>
      <text
         xml:space="preserve"
         style="font-size:21.3333px;line-height:1.5;font-family:Cantarell;-inkscape-font-specification:Cantarell;letter-spacing:0.92px;fill:#000000"
         x="376.78094"
         y="286.71237"
         id="text16"><tspan
           sodipodi:role="line"
           id="tspan16"
           x="376.78094"
           y="286.71237"
           style="fill:#ffffff">Personality</tspan></text>
      <text
         xml:space="preserve"
         style="font-size:21.3333px;line-height:1.5;font-family:Cantarell;-inkscape-font-specification:Cantarell;letter-spacing:0.92px;fill:#000000"
         x="409.37653"
         y="192.71306"
         id="text17"><tspan
           sodipodi:role="line"
           id="tspan17"
           x="409.37653"
           y="192.71306"
           style="fill:#ffffff">Body</tspan></text>
      <text
         xml:space="preserve"
         style="font-size:21.3333px;line-height:1.5;font-family:Cantarell;-inkscape-font-specification:Cantarell;letter-spacing:0.92px;fill:#000000"
         x="386.74164"
         y="101.02251"
         id="text18"><tspan
           sodipodi:role="line"
           id="tspan18"
           x="386.74164"
           y="101.02251"
           style="fill:#ffffff">IDENTITY</tspan></text>
      <text
         xml:space="preserve"
         style="font-size:21.3333px;line-height:1.5;font-family:Cantarell;-inkscape-font-specification:Cantarell;letter-spacing:0.92px;fill:#000000"
         x="394.39578"
         y="678.60773"
         id="text32"><tspan
           sodipodi:role="line"
           id="tspan32"
           x="394.39578"
           y="678.60773"
           style="fill:#ffffff">Creation</tspan></text>
    </g>
    <text
       xml:space="preserve"
       style="font-size:21.3333px;line-height:1.6;font-family:Cantarell;-inkscape-font-specification:Cantarell;letter-spacing:0.92px;display:inline;fill:#0079b6;fill-opacity:1"
       x="160.3187"
       y="-752.98657"
       id="text19"
       transform="rotate(90)"><tspan
         sodipodi:role="line"
         id="tspan19"
         x="160.3187"
         y="-752.98657"
         style="font-size:21.3333px;line-height:1.6;fill:#0079b6;fill-opacity:1">Ordinary Consciousness  --&gt;  Spiritual Practice</tspan></text>
    <g
       id="g12"
       transform="translate(7.7645302)"
       style="display:inline">
      <text
         xml:space="preserve"
         style="font-size:21.3333px;line-height:1.5;font-family:Cantarell;-inkscape-font-specification:Cantarell;letter-spacing:0.92px;fill:#000000"
         x="411.47778"
         y="678.60773"
         id="text7"><tspan
           sodipodi:role="line"
           id="tspan7"
           x="411.47778"
           y="678.60773"
           style="fill:#ffffff">Being</tspan></text>
      <text
         xml:space="preserve"
         style="font-size:21.3333px;line-height:1.5;font-family:Cantarell;-inkscape-font-specification:Cantarell;letter-spacing:0.92px;fill:#000000"
         x="396.05908"
         y="586.17365"
         id="text8"><tspan
           sodipodi:role="line"
           id="tspan8"
           x="396.05908"
           y="586.17365"
           style="fill:#ffffff">Sleeping</tspan></text>
      <text
         xml:space="preserve"
         style="font-size:21.3333px;line-height:1.5;font-family:Cantarell;-inkscape-font-specification:Cantarell;letter-spacing:0.92px;fill:#000000"
         x="389.84744"
         y="472.57178"
         id="text9"><tspan
           sodipodi:role="line"
           id="tspan9"
           x="389.84744"
           y="472.57178"
           style="fill:#ffffff">Dreaming</tspan></text>
      <text
         xml:space="preserve"
         style="font-size:21.3333px;line-height:1.5;font-family:Cantarell;-inkscape-font-specification:Cantarell;letter-spacing:0.92px;fill:#000000"
         x="393.86292"
         y="376.56934"
         id="text10"><tspan
           sodipodi:role="line"
           id="tspan10"
           x="393.86292"
           y="376.56934"
           style="fill:#ffffff">Relaxing</tspan></text>
      <text
         xml:space="preserve"
         style="font-size:21.3333px;line-height:1.5;font-family:Cantarell;-inkscape-font-specification:Cantarell;letter-spacing:0.92px;fill:#000000"
         x="401.612"
         y="285.88745"
         id="text11"><tspan
           sodipodi:role="line"
           id="tspan11"
           x="401.612"
           y="285.88745"
           style="fill:#ffffff">Waking</tspan></text>
      <text
         xml:space="preserve"
         style="font-size:21.3333px;line-height:1.5;font-family:Cantarell;-inkscape-font-specification:Cantarell;letter-spacing:0.92px;fill:#000000"
         x="354.13062"
         y="101.02251"
         id="text12"><tspan
           sodipodi:role="line"
           id="tspan12"
           x="354.13062"
           y="101.02251"
           style="fill:#ffffff">ORDINARY</tspan></text>
    </g>
    <g
       id="g5"
       transform="translate(195.66623)"
       style="display:inline">
      <path
         style="fill:#00161e;fill-opacity:1;stroke-width:1.11855"
         d="M 333.8135,659.44805 439.2283,159.36295 549.03537,662.19576"
         id="path6"
         sodipodi:nodetypes="ccc" />
      <text
         xml:space="preserve"
         style="font-size:21.3333px;line-height:1.5;font-family:Cantarell;-inkscape-font-specification:Cantarell;letter-spacing:0.92px;fill:#000000"
         x="397.50162"
         y="678.60773"
         id="text1"><tspan
           sodipodi:role="line"
           id="tspan1"
           x="397.50162"
           y="678.60773"
           style="fill:#ffffff">nondual</tspan></text>
      <text
         xml:space="preserve"
         style="font-size:21.3333px;line-height:1.5;font-family:Cantarell;-inkscape-font-specification:Cantarell;letter-spacing:0.92px;fill:#000000"
         x="408.48233"
         y="598.59692"
         id="text5"><tspan
           sodipodi:role="line"
           id="tspan5"
           x="408.48233"
           y="598.59692"
           style="fill:#ffffff">causal</tspan></text>
      <text
         xml:space="preserve"
         style="font-size:21.3333px;line-height:1.5;font-family:Cantarell;-inkscape-font-specification:Cantarell;letter-spacing:0.92px;fill:#000000"
         x="408.48233"
         y="500.52411"
         id="text3"><tspan
           sodipodi:role="line"
           id="tspan3"
           x="408.48233"
           y="500.52411"
           style="fill:#ffffff">subtle</tspan></text>
      <text
         xml:space="preserve"
         style="font-size:21.3333px;line-height:1.5;font-family:Cantarell;-inkscape-font-specification:Cantarell;letter-spacing:0.92px;fill:#000000"
         x="406.28616"
         y="410.28619"
         id="text4"><tspan
           sodipodi:role="line"
           id="tspan4"
           x="406.28616"
           y="410.28619"
           style="fill:#ffffff">psychic</tspan></text>
      <text
         xml:space="preserve"
         style="font-size:21.3333px;line-height:1.5;font-family:Cantarell;-inkscape-font-specification:Cantarell;letter-spacing:0.92px;fill:#000000"
         x="412.48233"
         y="285.88745"
         id="text2"><tspan
           sodipodi:role="line"
           id="tspan2"
           x="412.48233"
           y="285.88745"
           style="fill:#ffffff">gross</tspan></text>
      <text
         xml:space="preserve"
         style="font-size:21.3333px;line-height:1.5;font-family:Cantarell;-inkscape-font-specification:Cantarell;letter-spacing:0.92px;fill:#000000"
         x="408.48233"
         y="101.02251"
         id="text6"><tspan
           sodipodi:role="line"
           id="tspan6"
           x="408.48233"
           y="101.02251"
           style="fill:#ffffff">STATE</tspan></text>
    </g>
    <g
       id="g25"
       transform="translate(-104.93892,6)"
       style="fill:#ff9955">
      <path
         style="display:inline;fill:#260b0b;fill-opacity:1"
         d="m 574.90559,603.94153 c -2.01088,1.62943 -7.66205,2.87744 -6.03261,4.88832 1.62944,2.01086 7.66204,-2.87745 6.03261,-4.88832 -1.38522,-1.70948 -25.25503,-0.20283 -28.28198,-8.26297 -0.54595,-1.45378 -0.81657,-3.24143 -0.17465,-4.65545 1.2635,-2.78322 2.0832,-0.99681 4.59723,-1.72647 5.90165,-1.71288 10.16863,-8.44181 15.16883,-9.89307 1.81814,-0.52769 3.82581,0.91394 4.59723,-1.72647 0.58067,-1.98744 -0.15524,-4.13817 -0.23287,-6.20725 -0.13412,-3.57508 0.1505,-4.35381 -3.39471,-7.64264 -0.37949,-0.35205 -1.08048,0.27219 -1.55182,0.0582 -4.11505,-1.86811 -0.56246,-1.65797 -6.32369,-2.87077 -4.07259,-0.85731 -5.47117,-5.00063 -9.54376,-5.85794 -2.02613,-0.42652 -4.18113,0.65939 -6.20726,0.23287 -2.26529,-0.47687 -4.05841,-2.3939 -6.32369,-2.87077 -3.49024,-0.73472 -7.73336,1.81275 -10.92093,-1.14428 -1.0757,-0.99791 -1.37337,-10.4152 -0.46574,-12.41453 1.66654,-3.67103 4.66901,-3.85166 7.58442,-4.94652 2.45185,-0.92079 3.52254,-5.51935 5.97439,-6.44014 8.4934,-3.18965 19.60519,3.85536 24.59617,-7.13874 0.42795,-0.94268 0.12452,-2.09678 -0.11644,-3.10363 -1.10285,-4.60847 -4.78813,-6.39641 -9.60198,-7.40977 -1.01307,-0.21326 -2.2213,0.658 -3.10362,0.11644 -3.4202,-2.09932 -1.42129,-4.91787 -6.44014,-5.97439 -1.01307,-0.21326 -2.10989,0.40676 -3.10363,0.11643 -2.42225,-0.7077 -2.21985,-5.05494 -3.33649,-6.09082 -0.78836,-0.73134 -7.61909,0.14019 -4.77188,-2.92898 0.75882,-0.81796 6.87725,-0.0352 7.75907,-0.29109 2.22319,-0.64525 3.86763,-2.69125 6.09083,-3.3365 1.98848,-0.57713 4.39133,0.76188 6.20725,-0.23287 1.51519,-0.83 -2.36445,-5.49418 -3.3365,-6.09082 -3.55025,-2.17914 -8.3523,-1.75705 -11.03735,-4.24793 -7.49879,-6.95648 1.14441,2.08914 -5.00475,-9.13623 -0.88507,-1.6157 -10.96882,-8.46728 -12.76383,-8.84515 -1.01307,-0.21326 -2.27154,0.7324 -3.10363,0.11643 -2.08022,-1.53991 -2.99087,-4.27237 -4.88831,-6.0326 -0.64259,-0.59612 -5.98066,-3.16556 -7.93373,-4.36435 -2.20581,-1.35392 -3.8976,-3.69675 -6.38191,-4.42258 -1.98746,-0.58066 -4.16313,0.56254 -6.20726,0.23287 -1.45494,-0.23464 -5.33684,-4.49745 -4.88831,-6.03261 1.73105,-5.92495 1.28086,-1.54829 7.64263,-3.39471 2.2232,-0.64525 3.92367,-2.52264 6.09083,-3.3365 7.79169,-2.92613 31.8028,1.65053 38.79537,-1.45544 1.33804,-0.59433 1.80029,-2.36283 2.98719,-3.22007 1.2589,-0.90923 3.20167,0.37131 4.65545,-0.17466 8.14457,-3.05864 -7.52423,-15.69874 -8.39947,-16.77887 -1.41401,-1.74502 -2.34551,-4.47184 -4.88831,-6.0326 -1.95085,-1.19743 -7.00127,-1.8814 -7.93373,-4.36436 -0.59132,-1.57456 -0.8528,-8.45618 1.2025,-9.3691 1.89227,-0.84052 4.19359,0.24902 6.20727,-0.23287 1.42388,-0.34077 1.5633,-2.87932 2.98719,-3.22008 4.87157,-1.16582 12.2845,1.98032 13.79168,-5.1794 1.69043,-8.03019 -0.67735,-18.05517 -0.9897,-26.38085 -0.0582,-1.55181 0.96381,-3.59932 -0.17465,-4.65545 -0.37949,-0.35204 -1.08048,0.2722 -1.55182,0.0582 -1.33315,-0.60521 -1.81472,-2.5766 -3.22006,-2.98719 -2.62819,-0.76786 -6.81842,1.48081 -9.31089,0.3493 -3.17736,-1.44241 -3.50742,-4.95731 -4.94653,-7.58441 -0.7034,-1.28407 -2.70533,-1.61657 -3.22007,-2.9872 -4.17031,-11.10468 11.09248,-10.03563 16.60422,-13.05492 0.74622,-0.40877 4.11842,-1.83868 4.53901,-3.27828 0.73428,-2.51324 -0.52758,-15.32988 -0.58217,-15.51815 -0.40809,-1.40607 -2.42026,-1.76086 -3.22006,-2.98719 -1.25595,-1.92571 -2.13072,-5.89253 -3.39473,-7.64264 -1.71446,-2.37379 -4.84051,-3.52173 -6.44012,-5.97439 -0.89421,-1.37107 -0.94005,-3.1616 -1.72647,-4.59723 -1.05509,-1.92609 -3.54425,-2.70044 -4.8301,-4.48079 -1.39076,-1.9256 -9.17781,-12.70447 -9.89307,-15.16884 -0.36625,-1.26193 -0.86684,-6.49079 -0.29109,-7.75907 1.308,-2.88125 8.66001,-13.49444 11.89057,-14.43208 2.41139,-0.69988 5.34769,0.40879 7.75907,-0.29108 2.2232,-0.64526 3.86764,-2.69125 6.09082,-3.33651 2.27743,-0.66099 5.63612,0.65189 7.75908,-0.29109 1.33803,-0.59433 1.70313,-2.51667 2.98719,-3.22006 1.81594,-0.99475 4.21879,0.34426 6.20727,-0.23287 5.34329,-1.55083 5.93956,-3.33082 12.29808,-3.56937"
         id="path25"
         transform="translate(-72.986607)" />
      <text
         xml:space="preserve"
         style="font-size:21.3333px;line-height:1.5;font-family:Cantarell;-inkscape-font-specification:Cantarell;letter-spacing:0.92px;fill:#ff9955"
         x="406.92944"
         y="575.30328"
         id="text21"><tspan
           sodipodi:role="line"
           id="tspan21"
           x="406.92944"
           y="575.30328"
           style="fill:#ff9955">Delta</tspan></text>
      <text
         xml:space="preserve"
         style="font-size:21.3333px;line-height:1.5;font-family:Cantarell;-inkscape-font-specification:Cantarell;letter-spacing:0.92px;fill:#ff9955"
         x="405.37653"
         y="471.01889"
         id="text22"><tspan
           sodipodi:role="line"
           id="tspan22"
           x="405.37653"
           y="471.01889"
           style="fill:#ff9955">Theta</tspan></text>
      <text
         xml:space="preserve"
         style="font-size:21.3333px;line-height:1.5;font-family:Cantarell;-inkscape-font-specification:Cantarell;letter-spacing:0.92px;fill:#ff9955"
         x="406.28616"
         y="370.56934"
         id="text23"><tspan
           sodipodi:role="line"
           id="tspan23"
           x="406.28616"
           y="370.56934"
           style="fill:#ff9955">Alpha</tspan></text>
      <text
         xml:space="preserve"
         style="font-size:21.3333px;line-height:1.5;font-family:Cantarell;-inkscape-font-specification:Cantarell;letter-spacing:0.92px;fill:#ff9955"
         x="415.58817"
         y="279.44034"
         id="text24"><tspan
           sodipodi:role="line"
           id="tspan24"
           x="415.58817"
           y="279.44034"
           style="fill:#ff9955">Beta</tspan></text>
      <text
         xml:space="preserve"
         style="font-size:21.3333px;line-height:1.5;font-family:Cantarell;-inkscape-font-specification:Cantarell;letter-spacing:0.92px;fill:#ff9955"
         x="366.55386"
         y="639.88104"
         id="text25"><tspan
           sodipodi:role="line"
           id="tspan25"
           x="366.55386"
           y="639.88104"
           style="fill:#ff9955">BRAINWAVES</tspan></text>
    </g>
  </g>
</svg>
