<?xml version="1.0" encoding="UTF-8" standalone="no"?>
<!-- Created with Inkscape (http://www.inkscape.org/) -->

<svg
   width="646"
   height="220"
   viewBox="0 0 646 220"
   version="1.1"
   id="svg1"
   inkscape:version="1.3.2 (091e20ef0f, 2023-11-25, custom)"
   sodipodi:docname="steinunlimited1.svg"
   xmlns:inkscape="http://www.inkscape.org/namespaces/inkscape"
   xmlns:sodipodi="http://sodipodi.sourceforge.net/DTD/sodipodi-0.dtd"
   xmlns:xlink="http://www.w3.org/1999/xlink"
   xmlns="http://www.w3.org/2000/svg"
   xmlns:svg="http://www.w3.org/2000/svg">
  <sodipodi:namedview
     id="namedview1"
     pagecolor="#505050"
     bordercolor="#ffffff"
     borderopacity="1"
     inkscape:showpageshadow="0"
     inkscape:pageopacity="0"
     inkscape:pagecheckerboard="1"
     inkscape:deskcolor="#505050"
     inkscape:document-units="px"
     inkscape:zoom="1.0261431"
     inkscape:cx="316.71996"
     inkscape:cy="97.939556"
     inkscape:window-width="1280"
     inkscape:window-height="688"
     inkscape:window-x="0"
     inkscape:window-y="32"
     inkscape:window-maximized="1"
     inkscape:current-layer="layer1" />
  <defs
     id="defs1">
    <inkscape:path-effect
       effect="clone_original"
       css_properties=""
       attributes="clip-path,mask"
       linkeditem="#text1"
       is_visible="true"
       method="d"
       allow_transforms="true"
       id="path-effect25"
       lpeversion="1" />
    <linearGradient
       id="linearGradient15"
       inkscape:collect="always">
      <stop
         style="stop-color:#3812ff;stop-opacity:1;"
         offset="0"
         id="stop17" />
      <stop
         style="stop-color:#03f600;stop-opacity:1;"
         offset="0.52698779"
         id="stop15" />
      <stop
         style="stop-color:#3402ff;stop-opacity:1;"
         offset="0.81674206"
         id="stop16" />
    </linearGradient>
    <inkscape:path-effect
       effect="clone_original"
       css_properties=""
       attributes="clip-path,mask"
       linkeditem="#text1"
       is_visible="true"
       method="d"
       allow_transforms="true"
       id="path-effect9"
       lpeversion="1" />
    <inkscape:path-effect
       effect="clone_original"
       linkeditem=""
       id="path-effect7"
       is_visible="true"
       lpeversion="1"
       method="d"
       attributes=""
       css_properties=""
       allow_transforms="true" />
    <inkscape:path-effect
       effect="vonkoch"
       id="path-effect5"
       is_visible="true"
       lpeversion="1"
       ref_path="M 36.375509,84.750628 H 794.29799"
       generator="M 36.375509,125.49969 H 289.01634 m 252.64082,0 h 252.64083"
       similar_only="false"
       nbgenerations="3"
       drawall="true"
       maxComplexity="3" />
    <inkscape:path-effect
       effect="sketch"
       id="path-effect3"
       is_visible="true"
       lpeversion="1"
       nbiter_approxstrokes="5"
       parallel_offset="2.5;3515795863"
       strokelength="100"
       strokelength_rdm="0.3;738658743"
       strokeoverlap="0.3"
       strokeoverlap_rdm="0.3;638341615"
       ends_tolerance="0.1;849585359"
       tremble_size="5;4046009000"
       tremble_frequency="1"
       nbtangents="5"
       tgt_places_rdmness="1;1973980343"
       tgtlength="100"
       tgtlength_rdm="0.3;273742319"
       tgtscale="10" />
    <inkscape:path-effect
       effect="offset"
       id="path-effect6"
       is_visible="true"
       lpeversion="1.2"
       linejoin_type="miter"
       unit="mm"
       offset="1"
       miter_limit="4"
       attempt_force_join="false"
       update_on_knot_move="true" />
    <inkscape:path-effect
       effect="clone_original"
       css_properties=""
       attributes="clip-path,mask"
       linkeditem="#text1"
       is_visible="true"
       method="d"
       allow_transforms="true"
       id="path-effect4"
       lpeversion="1" />
    <inkscape:path-effect
       effect="offset"
       id="path-effect2"
       is_visible="true"
       lpeversion="1.2"
       linejoin_type="miter"
       unit="mm"
       offset="0.6"
       miter_limit="4"
       attempt_force_join="false"
       update_on_knot_move="true" />
    <inkscape:path-effect
       effect="clone_original"
       css_properties="color"
       attributes="clip-path,mask"
       linkeditem="#text1"
       is_visible="true"
       method="d"
       allow_transforms="true"
       id="path-effect1"
       lpeversion="1" />
    <linearGradient
       id="linearGradient4"
       inkscape:collect="always">
      <stop
         style="stop-color:#2c0080;stop-opacity:1;"
         offset="0"
         id="stop5" />
      <stop
         style="stop-color:#00db01;stop-opacity:1;"
         offset="1"
         id="stop6" />
    </linearGradient>
    <linearGradient
       id="linearGradient2"
       inkscape:collect="always">
      <stop
         style="stop-color:#0cc900;stop-opacity:1;"
         offset="0"
         id="stop3" />
      <stop
         style="stop-color:#0cc900;stop-opacity:0;"
         offset="1"
         id="stop4" />
    </linearGradient>
    <radialGradient
       inkscape:collect="always"
       xlink:href="#linearGradient2"
       id="radialGradient4"
       cx="436.62778"
       cy="80.675797"
       fx="436.62778"
       fy="80.675797"
       r="404.94086"
       gradientTransform="matrix(1,0,0,0.10929024,0,71.858719)"
       gradientUnits="userSpaceOnUse" />
    <radialGradient
       inkscape:collect="always"
       xlink:href="#linearGradient4"
       id="radialGradient6"
       cx="436.62778"
       cy="80.675797"
       fx="436.62778"
       fy="80.675797"
       r="404.06238"
       gradientTransform="matrix(1,0,0,0.10735369,0,72.014952)"
       gradientUnits="userSpaceOnUse"
       spreadMethod="repeat" />
    <filter
       inkscape:label="Apparition"
       inkscape:menu="Blurs"
       inkscape:menu-tooltip="Edges are partly feathered out"
       style="color-interpolation-filters:sRGB;"
       id="filter25"
       x="-0.029737034"
       y="-0.15835152"
       width="1.059474"
       height="1.3167031">
      <feMorphology
         radius="4"
         in="SourceGraphic"
         result="result0"
         id="feMorphology25" />
      <feGaussianBlur
         in="result0"
         stdDeviation="8"
         result="result91"
         id="feGaussianBlur25" />
      <feComposite
         operator="in"
         in="SourceGraphic"
         in2="result91"
         id="feComposite25" />
    </filter>
    <linearGradient
       inkscape:collect="always"
       xlink:href="#linearGradient15"
       id="linearGradient16"
       x1="425.6503"
       y1="78.629456"
       x2="425.6503"
       y2="117.65192"
       gradientUnits="userSpaceOnUse" />
    <filter
       inkscape:collect="always"
       style="color-interpolation-filters:sRGB"
       id="filter19"
       x="-0.017164815"
       y="-0.053015379"
       width="1.0343296"
       height="1.1060308">
      <feGaussianBlur
         inkscape:collect="always"
         stdDeviation="2.2290324"
         id="feGaussianBlur19" />
    </filter>
    <filter
       inkscape:collect="always"
       style="color-interpolation-filters:sRGB"
       id="filter22"
       x="-0.0080178856"
       y="-0.074565345"
       width="1.0160358"
       height="1.1491307">
      <feGaussianBlur
         inkscape:collect="always"
         stdDeviation="2.166015"
         id="feGaussianBlur22" />
    </filter>
    <filter
       inkscape:collect="always"
       style="color-interpolation-filters:sRGB"
       id="filter23"
       x="-0.0016029535"
       y="-0.014205914"
       width="1.0032059"
       height="1.0284118">
      <feGaussianBlur
         inkscape:collect="always"
         stdDeviation="0.14320263"
         id="feGaussianBlur23" />
    </filter>
    <filter
       inkscape:collect="always"
       style="color-interpolation-filters:sRGB"
       id="filter26"
       x="-0.002661877"
       y="-0.024755128"
       width="1.0053238"
       height="1.0495103">
      <feGaussianBlur
         inkscape:collect="always"
         stdDeviation="0.47458183"
         id="feGaussianBlur26" />
    </filter>
  </defs>
  <g
     inkscape:label="Layer 1"
     inkscape:groupmode="layer"
     id="layer1"
     style="display:inline">
    <rect
       style="display:inline;fill:#000000;fill-opacity:1"
       id="rect2"
       width="646.57355"
       height="219.20757"
       x="-0.64054221"
       y="0.56921238" />
    <text
       xml:space="preserve"
       style="font-size:926.789px;line-height:1.6;font-family:Cantarell;-inkscape-font-specification:Cantarell;letter-spacing:4.44084px;display:inline;opacity:0.46247;mix-blend-mode:normal;fill:#0f002c;fill-opacity:1;stroke:#6e1fff;stroke-width:4.82701;stroke-opacity:1;filter:url(#filter19)"
       x="-14.415977"
       y="438.85275"
       id="text17"
       transform="matrix(1.3596929,0,0,0.84753063,-31.033282,2.4719858)"><tspan
         sodipodi:role="line"
         id="tspan17"
         x="0"
         y="0"
         style="font-size:926.789px;fill:#0f002c;fill-opacity:1;stroke:#6e1fff;stroke-width:4.82701;stroke-opacity:1">~</tspan></text>
    <path
       d="m 36.488622,103.95161 h 3.676182 l 1.979482,10.23675 q 2.092596,2.65816 7.182694,4.6942 5.146654,2.03604 10.123639,2.03604 7.91793,0 12.329348,-4.01552 4.467974,-4.07208 4.467974,-11.19822 0,-4.07208 -1.753256,-6.730239 -1.696699,-2.658162 -4.524531,-4.467975 -2.771275,-1.866369 -6.334344,-3.110615 -3.563068,-1.300803 -7.352363,-2.601606 -3.732739,-1.300802 -7.295807,-2.884388 -3.563069,-1.583586 -6.390901,-4.015522 -2.771275,-2.431936 -4.524531,-5.995004 -1.696699,-3.619625 -1.696699,-8.879393 0,-9.049063 6.786797,-14.195717 6.786797,-5.146654 18.833362,-5.146654 9.162176,0 19.907938,2.431935 v 15.779303 h -3.676182 l -1.979483,-9.275289 q -5.768777,-4.185192 -14.252273,-4.185192 -7.57859,0 -11.876895,3.110616 -4.241748,3.054058 -4.241748,8.483496 0,3.676182 1.696699,6.108117 1.753256,2.431936 4.524531,4.185192 2.827832,1.696699 6.390901,2.940945 3.619625,1.244246 7.352363,2.601606 3.789295,1.300803 7.352364,2.997502 3.619625,1.640143 6.3909,4.241748 2.827832,2.545049 4.524532,6.277787 1.753256,3.676182 1.753256,9.105617 0,10.97199 -6.730241,17.02355 -6.73024,5.99501 -19.398928,5.99501 -6.108117,0 -12.272791,-1.07458 -6.164674,-1.07458 -10.971989,-2.94095 z m 76.695338,21.54808 q -5.42944,0 -8.14416,-3.22373 -2.65816,-3.22373 -2.65816,-9.04907 V 75.956068 h -6.956465 v -2.545049 l 7.069585,-2.205709 5.71222,-12.046565 h 3.56306 V 71.20531 h 12.15968 v 4.750758 h -12.15968 v 36.252812 q 0,3.67618 1.64015,5.54255 1.6967,1.86637 4.41142,1.86637 3.28028,0 7.97448,-0.90491 v 3.67618 q -1.97948,1.35736 -5.71222,2.20571 -3.73274,0.90491 -6.89991,0.90491 z m 29.24432,-27.882429 v 1.01802 q 0,7.804819 1.6967,12.159679 1.75326,4.2983 5.31633,6.56057 3.61962,2.26227 9.44495,2.26227 3.05406,0 7.23925,-0.50901 4.1852,-0.50901 6.89991,-1.13114 v 3.16717 q -2.71471,1.75326 -7.40892,3.05406 -4.63764,1.30081 -9.50151,1.30081 -12.38591,0 -18.15468,-6.67369 -5.71222,-6.67368 -5.71222,-21.434965 0,-13.912934 5.82533,-20.756288 5.82533,-6.843353 16.62765,-6.843353 20.41695,0 20.41695,23.188223 v 4.637644 z m 12.27279,-23.301336 q -5.88189,0 -9.04906,4.750758 -3.11062,4.750758 -3.11062,14.026047 h 22.73577 q 0,-10.123639 -2.6016,-14.421944 -2.60161,-4.354861 -7.97449,-4.354861 z m 47.11621,-20.473504 q 0,2.488492 -1.80981,4.298304 -1.80981,1.809813 -4.35486,1.809813 -2.48849,0 -4.29831,-1.809813 -1.80981,-1.809812 -1.80981,-4.298304 0,-2.545049 1.80981,-4.354862 1.80982,-1.809812 4.29831,-1.809812 2.54505,0 4.35486,1.809812 1.80981,1.809813 1.80981,4.354862 z m -0.56556,66.567169 9.10561,1.41391 v 2.54505 h -27.54308 v -2.54505 l 9.04906,-1.41391 V 75.164275 l -7.52203,-1.413916 V 71.20531 h 16.91044 z m 30.88447,-44.905976 q 4.35486,-2.488492 9.27529,-4.072078 4.92042,-1.640142 8.20071,-1.640142 6.89991,0 10.40642,4.015521 3.50651,4.015522 3.50651,11.650668 v 34.952007 l 6.44746,1.41391 v 2.54505 h -22.90544 v -2.54505 l 7.06958,-1.41391 V 86.475603 q 0,-4.694201 -2.31882,-7.352363 -2.26227,-2.714719 -7.06958,-2.714719 -5.0901,0 -12.49902,1.640142 v 42.360927 l 7.18269,1.41391 v 2.54505 H 216.47 v -2.54505 l 6.3909,-1.41391 V 75.164275 L 216.47,73.750359 V 71.20531 h 15.15718 z m 88.74642,33.707756 q 0,9.72775 9.04906,9.72775 7.01303,0 13.12114,-1.75326 V 75.164275 l -8.03104,-1.413916 V 71.20531 h 17.36289 v 49.20428 l 6.73024,1.41391 v 2.54505 h -15.49652 l -0.45245,-4.2983 q -4.01553,2.20571 -9.27529,3.84585 -5.25977,1.58359 -8.82284,1.58359 -13.57359,0 -13.57359,-15.60964 V 75.164275 l -6.7868,-1.413916 V 71.20531 h 16.1752 z m 59.7849,-33.707756 q 4.35486,-2.488492 9.27529,-4.072078 4.92043,-1.640142 8.20072,-1.640142 6.89991,0 10.40642,4.015521 3.50651,4.015522 3.50651,11.650668 v 34.952007 l 6.44746,1.41391 v 2.54505 h -22.90544 v -2.54505 l 7.06958,-1.41391 V 86.475603 q 0,-4.694201 -2.31883,-7.352363 -2.26226,-2.714719 -7.06958,-2.714719 -5.09009,0 -12.49901,1.640142 v 42.360927 l 7.18269,1.41391 v 2.54505 h -22.962 v -2.54505 l 6.3909,-1.41391 V 75.164275 l -6.3909,-1.413916 V 71.20531 h 15.15718 z m 76.52567,-23.980016 -11.70722,1.470473 v 66.510609 h 14.93095 q 12.04657,0 17.70223,-1.13113 l 3.50651,-15.7793 h 3.67618 l -1.01802,21.7743 h -59.44103 v -2.9975 l 9.72775,-1.52703 V 52.994071 l -9.72775,-1.470473 v -2.997502 h 32.3504 z m 57.74889,2.318823 q 0,2.488492 -1.80981,4.298304 -1.80982,1.809813 -4.35487,1.809813 -2.48849,0 -4.2983,-1.809813 -1.80981,-1.809812 -1.80981,-4.298304 0,-2.545049 1.80981,-4.354862 1.80981,-1.809812 4.2983,-1.809812 2.54505,0 4.35487,1.809812 1.80981,1.809813 1.80981,4.354862 z m -0.56557,66.567169 9.10562,1.41391 v 2.54505 h -27.54308 v -2.54505 l 9.04906,-1.41391 V 75.164275 l -7.52203,-1.413916 V 71.20531 h 16.91043 z m 30.99757,-44.905976 q 4.24175,-2.431935 8.99251,-4.072078 4.75075,-1.640142 8.37038,-1.640142 3.90241,0 7.18269,1.470472 3.33685,1.470473 4.97699,4.694202 4.35486,-2.431936 10.18019,-4.298305 5.88189,-1.866369 9.72775,-1.866369 13.57359,0 13.57359,15.666189 v 34.952007 l 6.84335,1.41391 v 2.54505 h -24.14968 v -2.54505 l 7.91793,-1.41391 V 86.475603 q 0,-9.727742 -9.04907,-9.727742 -1.47047,0 -3.44995,0.226226 -1.92293,0.226227 -3.90241,0.50901 -1.92292,0.282783 -3.73274,0.67868 -1.75325,0.339339 -2.94094,0.565566 0.96146,3.054059 0.96146,6.73024 v 34.952007 l 7.97449,1.41391 v 2.54505 h -25.22427 v -2.54505 l 7.86138,-1.41391 V 86.475603 q 0,-4.694201 -2.43194,-7.182694 -2.37538,-2.545048 -7.18269,-2.545048 -4.97699,0 -12.38591,1.640142 v 42.021587 l 7.97449,1.41391 v 2.54505 h -24.09313 v -2.54505 l 6.73024,-1.41391 V 75.164275 l -6.73024,-1.413916 V 71.20531 h 15.55308 z m 94.34104,-21.661193 q 0,2.488492 -1.80981,4.298304 -1.80982,1.809813 -4.35486,1.809813 -2.4885,0 -4.29831,-1.809813 -1.80981,-1.809812 -1.80981,-4.298304 0,-2.545049 1.80981,-4.354862 1.80981,-1.809812 4.29831,-1.809812 2.54504,0 4.35486,1.809812 1.80981,1.809813 1.80981,4.354862 z m -0.56557,66.567169 9.10562,1.41391 v 2.54505 h -27.54308 v -2.54505 l 9.04906,-1.41391 V 75.164275 l -7.52203,-1.413916 V 71.20531 h 16.91043 z m 31.45002,5.0901 q -5.42943,0 -8.14415,-3.22373 -2.65816,-3.22373 -2.65816,-9.04907 V 75.956068 h -6.95647 v -2.545049 l 7.06958,-2.205709 5.71222,-12.046565 h 3.56307 V 71.20531 h 12.15968 v 4.750758 h -12.15968 v 36.252812 q 0,3.67618 1.64014,5.54255 1.6967,1.86637 4.41142,1.86637 3.28028,0 7.97449,-0.90491 v 3.67618 q -1.97949,1.35736 -5.71222,2.20571 -3.73274,0.90491 -6.89992,0.90491 z m 29.24432,-27.882429 v 1.01802 q 0,7.804819 1.6967,12.159679 1.75325,4.2983 5.31632,6.56057 3.61963,2.26227 9.44496,2.26227 3.05406,0 7.23925,-0.50901 4.18519,-0.50901 6.89991,-1.13114 v 3.16717 q -2.71472,1.75326 -7.40892,3.05406 -4.63764,1.30081 -9.50152,1.30081 -12.3859,0 -18.15468,-6.67369 -5.71222,-6.67368 -5.71222,-21.434965 0,-13.912934 5.82534,-20.756288 5.82533,-6.843353 16.62765,-6.843353 20.41695,0 20.41695,23.188223 v 4.637644 z m 12.27279,-23.301336 q -5.88189,0 -9.04906,4.750758 -3.11062,4.750758 -3.11062,14.026047 h 22.73577 q 0,-10.123639 -2.6016,-14.421944 -2.60161,-4.354861 -7.97449,-4.354861 z m 66.57169,46.093665 q -6.39091,5.0901 -14.93096,5.0901 -21.77431,0 -21.77431,-27.203749 0,-13.96949 6.16468,-21.208741 6.16467,-7.295806 18.15468,-7.295806 6.10812,0 12.38591,1.300802 -0.33934,-1.866369 -0.33934,-9.388402 V 47.903973 l -8.93595,-1.357359 v -2.545049 h 18.32435 v 76.408025 l 6.56057,1.41391 v 2.54505 H 779.36703 Z M 752.16329,98.295941 q 0,10.745759 3.61963,16.062089 3.61962,5.25977 11.0851,5.25977 6.3909,0 11.481,-2.20571 V 75.390501 q -5.03355,-0.961463 -11.481,-0.961463 -14.70473,0 -14.70473,23.866903 z"
       id="path24"
       inkscape:path-effect="#path-effect25"
       inkscape:original-d="m 36.488622,103.95161 h 3.676182 l 1.979482,10.23675 q 2.092596,2.65816 7.182694,4.6942 5.146654,2.03604 10.123639,2.03604 7.91793,0 12.329348,-4.01552 4.467974,-4.07208 4.467974,-11.19822 0,-4.07208 -1.753256,-6.730239 -1.696699,-2.658162 -4.524531,-4.467975 -2.771275,-1.866369 -6.334344,-3.110615 -3.563068,-1.300803 -7.352363,-2.601606 -3.732739,-1.300802 -7.295807,-2.884388 -3.563069,-1.583586 -6.390901,-4.015522 -2.771275,-2.431936 -4.524531,-5.995004 -1.696699,-3.619625 -1.696699,-8.879393 0,-9.049063 6.786797,-14.195717 6.786797,-5.146654 18.833362,-5.146654 9.162176,0 19.907938,2.431935 v 15.779303 h -3.676182 l -1.979483,-9.275289 q -5.768777,-4.185192 -14.252273,-4.185192 -7.57859,0 -11.876895,3.110616 -4.241748,3.054058 -4.241748,8.483496 0,3.676182 1.696699,6.108117 1.753256,2.431936 4.524531,4.185192 2.827832,1.696699 6.390901,2.940945 3.619625,1.244246 7.352363,2.601606 3.789295,1.300803 7.352364,2.997502 3.619625,1.640143 6.3909,4.241748 2.827832,2.545049 4.524532,6.277787 1.753256,3.676182 1.753256,9.105617 0,10.97199 -6.730241,17.02355 -6.73024,5.99501 -19.398928,5.99501 -6.108117,0 -12.272791,-1.07458 -6.164674,-1.07458 -10.971989,-2.94095 z m 76.695338,21.54808 q -5.42944,0 -8.14416,-3.22373 -2.65816,-3.22373 -2.65816,-9.04907 V 75.956068 h -6.956465 v -2.545049 l 7.069585,-2.205709 5.71222,-12.046565 h 3.56306 V 71.20531 h 12.15968 v 4.750758 h -12.15968 v 36.252812 q 0,3.67618 1.64015,5.54255 1.6967,1.86637 4.41142,1.86637 3.28028,0 7.97448,-0.90491 v 3.67618 q -1.97948,1.35736 -5.71222,2.20571 -3.73274,0.90491 -6.89991,0.90491 z m 29.24432,-27.882429 v 1.01802 q 0,7.804819 1.6967,12.159679 1.75326,4.2983 5.31633,6.56057 3.61962,2.26227 9.44495,2.26227 3.05406,0 7.23925,-0.50901 4.1852,-0.50901 6.89991,-1.13114 v 3.16717 q -2.71471,1.75326 -7.40892,3.05406 -4.63764,1.30081 -9.50151,1.30081 -12.38591,0 -18.15468,-6.67369 -5.71222,-6.67368 -5.71222,-21.434965 0,-13.912934 5.82533,-20.756288 5.82533,-6.843353 16.62765,-6.843353 20.41695,0 20.41695,23.188223 v 4.637644 z m 12.27279,-23.301336 q -5.88189,0 -9.04906,4.750758 -3.11062,4.750758 -3.11062,14.026047 h 22.73577 q 0,-10.123639 -2.6016,-14.421944 -2.60161,-4.354861 -7.97449,-4.354861 z m 47.11621,-20.473504 q 0,2.488492 -1.80981,4.298304 -1.80981,1.809813 -4.35486,1.809813 -2.48849,0 -4.29831,-1.809813 -1.80981,-1.809812 -1.80981,-4.298304 0,-2.545049 1.80981,-4.354862 1.80982,-1.809812 4.29831,-1.809812 2.54505,0 4.35486,1.809812 1.80981,1.809813 1.80981,4.354862 z m -0.56556,66.567169 9.10561,1.41391 v 2.54505 h -27.54308 v -2.54505 l 9.04906,-1.41391 V 75.164275 l -7.52203,-1.413916 V 71.20531 h 16.91044 z m 30.88447,-44.905976 q 4.35486,-2.488492 9.27529,-4.072078 4.92042,-1.640142 8.20071,-1.640142 6.89991,0 10.40642,4.015521 3.50651,4.015522 3.50651,11.650668 v 34.952007 l 6.44746,1.41391 v 2.54505 h -22.90544 v -2.54505 l 7.06958,-1.41391 V 86.475603 q 0,-4.694201 -2.31882,-7.352363 -2.26227,-2.714719 -7.06958,-2.714719 -5.0901,0 -12.49902,1.640142 v 42.360927 l 7.18269,1.41391 v 2.54505 H 216.47 v -2.54505 l 6.3909,-1.41391 V 75.164275 L 216.47,73.750359 V 71.20531 h 15.15718 z m 88.74642,33.707756 q 0,9.72775 9.04906,9.72775 7.01303,0 13.12114,-1.75326 V 75.164275 l -8.03104,-1.413916 V 71.20531 h 17.36289 v 49.20428 l 6.73024,1.41391 v 2.54505 h -15.49652 l -0.45245,-4.2983 q -4.01553,2.20571 -9.27529,3.84585 -5.25977,1.58359 -8.82284,1.58359 -13.57359,0 -13.57359,-15.60964 V 75.164275 l -6.7868,-1.413916 V 71.20531 h 16.1752 z m 59.7849,-33.707756 q 4.35486,-2.488492 9.27529,-4.072078 4.92043,-1.640142 8.20072,-1.640142 6.89991,0 10.40642,4.015521 3.50651,4.015522 3.50651,11.650668 v 34.952007 l 6.44746,1.41391 v 2.54505 h -22.90544 v -2.54505 l 7.06958,-1.41391 V 86.475603 q 0,-4.694201 -2.31883,-7.352363 -2.26226,-2.714719 -7.06958,-2.714719 -5.09009,0 -12.49901,1.640142 v 42.360927 l 7.18269,1.41391 v 2.54505 h -22.962 v -2.54505 l 6.3909,-1.41391 V 75.164275 l -6.3909,-1.413916 V 71.20531 h 15.15718 z m 76.52567,-23.980016 -11.70722,1.470473 v 66.510609 h 14.93095 q 12.04657,0 17.70223,-1.13113 l 3.50651,-15.7793 h 3.67618 l -1.01802,21.7743 h -59.44103 v -2.9975 l 9.72775,-1.52703 V 52.994071 l -9.72775,-1.470473 v -2.997502 h 32.3504 z m 57.74889,2.318823 q 0,2.488492 -1.80981,4.298304 -1.80982,1.809813 -4.35487,1.809813 -2.48849,0 -4.2983,-1.809813 -1.80981,-1.809812 -1.80981,-4.298304 0,-2.545049 1.80981,-4.354862 1.80981,-1.809812 4.2983,-1.809812 2.54505,0 4.35487,1.809812 1.80981,1.809813 1.80981,4.354862 z m -0.56557,66.567169 9.10562,1.41391 v 2.54505 h -27.54308 v -2.54505 l 9.04906,-1.41391 V 75.164275 l -7.52203,-1.413916 V 71.20531 h 16.91043 z m 30.99757,-44.905976 q 4.24175,-2.431935 8.99251,-4.072078 4.75075,-1.640142 8.37038,-1.640142 3.90241,0 7.18269,1.470472 3.33685,1.470473 4.97699,4.694202 4.35486,-2.431936 10.18019,-4.298305 5.88189,-1.866369 9.72775,-1.866369 13.57359,0 13.57359,15.666189 v 34.952007 l 6.84335,1.41391 v 2.54505 h -24.14968 v -2.54505 l 7.91793,-1.41391 V 86.475603 q 0,-9.727742 -9.04907,-9.727742 -1.47047,0 -3.44995,0.226226 -1.92293,0.226227 -3.90241,0.50901 -1.92292,0.282783 -3.73274,0.67868 -1.75325,0.339339 -2.94094,0.565566 0.96146,3.054059 0.96146,6.73024 v 34.952007 l 7.97449,1.41391 v 2.54505 h -25.22427 v -2.54505 l 7.86138,-1.41391 V 86.475603 q 0,-4.694201 -2.43194,-7.182694 -2.37538,-2.545048 -7.18269,-2.545048 -4.97699,0 -12.38591,1.640142 v 42.021587 l 7.97449,1.41391 v 2.54505 h -24.09313 v -2.54505 l 6.73024,-1.41391 V 75.164275 l -6.73024,-1.413916 V 71.20531 h 15.55308 z m 94.34104,-21.661193 q 0,2.488492 -1.80981,4.298304 -1.80982,1.809813 -4.35486,1.809813 -2.4885,0 -4.29831,-1.809813 -1.80981,-1.809812 -1.80981,-4.298304 0,-2.545049 1.80981,-4.354862 1.80981,-1.809812 4.29831,-1.809812 2.54504,0 4.35486,1.809812 1.80981,1.809813 1.80981,4.354862 z m -0.56557,66.567169 9.10562,1.41391 v 2.54505 h -27.54308 v -2.54505 l 9.04906,-1.41391 V 75.164275 l -7.52203,-1.413916 V 71.20531 h 16.91043 z m 31.45002,5.0901 q -5.42943,0 -8.14415,-3.22373 -2.65816,-3.22373 -2.65816,-9.04907 V 75.956068 h -6.95647 v -2.545049 l 7.06958,-2.205709 5.71222,-12.046565 h 3.56307 V 71.20531 h 12.15968 v 4.750758 h -12.15968 v 36.252812 q 0,3.67618 1.64014,5.54255 1.6967,1.86637 4.41142,1.86637 3.28028,0 7.97449,-0.90491 v 3.67618 q -1.97949,1.35736 -5.71222,2.20571 -3.73274,0.90491 -6.89992,0.90491 z m 29.24432,-27.882429 v 1.01802 q 0,7.804819 1.6967,12.159679 1.75325,4.2983 5.31632,6.56057 3.61963,2.26227 9.44496,2.26227 3.05406,0 7.23925,-0.50901 4.18519,-0.50901 6.89991,-1.13114 v 3.16717 q -2.71472,1.75326 -7.40892,3.05406 -4.63764,1.30081 -9.50152,1.30081 -12.3859,0 -18.15468,-6.67369 -5.71222,-6.67368 -5.71222,-21.434965 0,-13.912934 5.82534,-20.756288 5.82533,-6.843353 16.62765,-6.843353 20.41695,0 20.41695,23.188223 v 4.637644 z m 12.27279,-23.301336 q -5.88189,0 -9.04906,4.750758 -3.11062,4.750758 -3.11062,14.026047 h 22.73577 q 0,-10.123639 -2.6016,-14.421944 -2.60161,-4.354861 -7.97449,-4.354861 z m 66.57169,46.093665 q -6.39091,5.0901 -14.93096,5.0901 -21.77431,0 -21.77431,-27.203749 0,-13.96949 6.16468,-21.208741 6.16467,-7.295806 18.15468,-7.295806 6.10812,0 12.38591,1.300802 -0.33934,-1.866369 -0.33934,-9.388402 V 47.903973 l -8.93595,-1.357359 v -2.545049 h 18.32435 v 76.408025 l 6.56057,1.41391 v 2.54505 H 779.36703 Z M 752.16329,98.295941 q 0,10.745759 3.61963,16.062089 3.61962,5.25977 11.0851,5.25977 6.3909,0 11.481,-2.20571 V 75.390501 q -5.03355,-0.961463 -11.481,-0.961463 -14.70473,0 -14.70473,23.866903 z"
       transform="matrix(0.73672,0,0,1.3573678,11.389229,-7.9805309)"
       class="fromclone"
       style="font-size:115.828px;line-height:1.6;font-family:Cantarell;-inkscape-font-specification:Cantarell;letter-spacing:1.24878px;display:inline;opacity:1;mix-blend-mode:normal;fill:#027f00;fill-opacity:0;stroke:#000000;stroke-width:1.757;stroke-dasharray:none;stroke-opacity:1;paint-order:normal;filter:url(#filter22)"
       inkscape:label="purple" />
    <path
       d="m 767.14453,41.734375 v 6.761719 l 8.9375,1.357422 v 11.849609 c 0,3.456346 0.1393,4.939257 0.25781,6.728516 -3.37171,-0.550014 -6.72343,-0.908204 -10.03711,-0.908204 -8.511,10e-7 -15.25062,2.613904 -19.88086,8.09375 -4.57281,5.369907 -6.70703,13.035526 -6.70703,22.679688 0,19.119135 7.99226,29.470705 24.04297,29.470705 4.90578,0 9.32207,-1.20489 13.28516,-3.53906 l 0.41211,2.4082 h 19.11133 v -6.64258 l -6.56055,-1.41406 V 41.734375 Z M 61.996094,45.410156 c -8.351419,0 -15.169742,1.788959 -20.205078,5.607422 -5.161722,3.914305 -7.683594,9.260496 -7.683594,16.001953 0,3.742963 0.607384,7.060337 1.912109,9.84375 l 0.0078,0.01953 0.0098,0.01953 c 1.291583,2.624829 2.97571,4.864286 5.064453,6.697265 l 0.0098,0.0078 0.0078,0.0059 c 2.060294,1.771854 4.378569,3.227498 6.947265,4.369141 2.433099,1.081377 4.923447,2.065445 7.470703,2.953125 l 0.0039,0.002 0.0059,0.002 c 2.513356,0.862794 4.951837,1.726061 7.3125,2.587891 l 0.01367,0.0039 0.01563,0.0059 c 2.215237,0.773575 4.147587,1.727027 5.814453,2.84961 l 0.02344,0.01563 0.02148,0.01367 c 1.617641,1.03529 2.895501,2.309006 3.833984,3.779297 l 0.0098,0.0137 0.0098,0.0137 c 0.8668,1.31417 1.378907,3.10371 1.378907,5.48242 0,4.21729 -1.298128,7.30449 -3.728516,9.51953 -2.410534,2.1942 -5.929516,3.42578 -10.800781,3.42578 -2.9995,0 -6.100405,-0.61393 -9.283203,-1.87305 -2.989477,-1.19579 -4.8237,-2.46054 -5.931641,-3.72265 L 42.035303,101.6838 H 34.22085 v 21.35352 l 1.447266,0.56055 c 3.367534,1.30739 7.17761,2.32573 11.404297,3.0625 4.23574,0.73834 8.456151,1.10742 12.662109,1.10742 8.81486,0 15.875451,-2.08909 20.90625,-6.57031 l 0.0039,-0.004 0.0039,-0.004 c 5.056805,-4.54687 7.482422,-10.87265 7.482422,-18.70898 0,-3.848312 -0.624998,-7.236288 -1.96875,-10.062504 -1.247829,-2.738233 -2.927153,-5.079935 -5.050781,-6.994141 -2.026454,-1.897485 -4.345628,-3.43451 -6.957031,-4.621094 -2.450615,-1.166327 -4.975043,-2.194965 -7.576172,-3.08789 -2.48329,-0.902758 -4.932357,-1.769335 -7.341797,-2.597657 -2.241385,-0.782705 -4.219516,-1.699293 -5.951172,-2.736328 -1.603489,-1.018927 -2.88299,-2.212216 -3.859375,-3.5625 -0.799976,-1.153406 -1.28125,-2.723207 -1.28125,-4.794922 0,-2.881198 1.11902,-5.072795 3.304688,-6.646484 2.360924,-1.708564 5.800114,-2.681641 10.546875,-2.681641 4.92752,0 8.954542,1.176952 12.236328,3.34375 l 2.158203,10.117188 h 7.78125 V 48.296875 L 82.404297,47.898437 C 75.107183,46.246986 68.301634,45.410156 61.996094,45.410156 Z m 19.115234,40.013672 c 0.0078,0.0073 0.01759,0.01221 0.02539,0.01953 l -0.03516,-0.03125 c 0.0038,0.0034 0.006,0.0083 0.0098,0.01172 z m 5.050781,6.994141 c 0.0032,0.0071 0.0085,0.01243 0.01172,0.01953 l -0.01758,-0.03906 c 0.0028,0.0059 0.0031,0.01363 0.0059,0.01953 z M 195.65234,45.410156 c -2.27821,0 -4.28249,0.854769 -5.90234,2.47461 -1.67625,1.676249 -2.47266,3.589773 -2.47266,5.957031 0,2.276213 0.85184,4.281525 2.47266,5.902344 1.61984,1.619837 3.62413,2.474609 5.90234,2.474609 2.30216,0 4.32971,-0.845328 5.95899,-2.474609 1.62081,-1.620815 2.47265,-3.626131 2.47265,-5.902344 0,-2.367258 -0.7964,-4.280782 -2.47265,-5.957031 -1.62928,-1.629281 -3.65683,-2.47461 -5.95899,-2.47461 z m 313.125,0 c -2.27821,0 -4.2825,0.854765 -5.90234,2.47461 -1.67625,1.676249 -2.47266,3.589773 -2.47266,5.957031 0,2.276213 0.85185,4.28153 2.47266,5.902344 1.61984,1.619845 3.62413,2.474609 5.90234,2.474609 2.30216,0 4.3297,-0.845332 5.95899,-2.474609 1.62081,-1.620815 2.47265,-3.626131 2.47265,-5.902344 0,-2.367258 -0.7964,-4.280777 -2.47265,-5.957031 -1.62928,-1.629272 -3.65683,-2.47461 -5.95899,-2.47461 z m 124.77344,0 c -2.27822,0 -4.2825,0.854768 -5.90234,2.47461 -1.67517,1.675167 -2.47461,3.587598 -2.47461,5.957031 0,2.278215 0.85477,4.282503 2.47461,5.902344 1.61984,1.619842 3.62412,2.474609 5.90234,2.474609 2.30215,0 4.3297,-0.845329 5.95899,-2.474609 1.62081,-1.620815 2.47265,-3.626131 2.47265,-5.902344 0,-2.367258 -0.7964,-4.280777 -2.47265,-5.957031 -1.62929,-1.629276 -3.65683,-2.47461 -5.95899,-2.47461 z m -210.97461,0.847656 v 7.216797 l 9.72656,1.470703 V 117.9043 l -9.72656,1.52734 v 7.20508 h 63.8711 l 1.23242,-26.31055 h -7.87305 l -3.55273,15.98828 c -3.62372,0.5843 -8.65485,0.92188 -15.83789,0.92188 H 447.75391 V 54.994141 l 11.70703,-1.470704 v -7.265625 z m -315.80273,10.632813 -5.90235,12.445312 -7.712887,2.40625 v 6.482422 h 6.955077 v 35.001951 c 0,4.23389 0.97055,7.81775 3.17578,10.49219 l 0.008,0.008 0.008,0.01 c 2.34948,2.79001 5.75395,4.03125 9.8789,4.03125 2.31432,0 4.79629,-0.33114 7.41602,-0.96485 2.63161,-0.59929 4.84363,-1.42056 6.48047,-2.54296 l 0.98437,-0.67579 v -7.61718 l -2.69726,0.51953 c -3.04485,0.58696 -5.54017,0.86328 -7.54492,0.86328 -1.15343,0 -2.09462,-0.43305 -2.71875,-1.11133 -0.60456,-0.69637 -1.06641,-1.92611 -1.06641,-4.0293 V 78.224609 h 12.16016 V 68.9375 H 114.03711 V 56.890625 Z m 557.41601,0 -5.90234,12.445312 -7.71484,2.40625 v 6.482422 h 6.95703 v 35.001951 c 0,4.23389 0.97054,7.81775 3.17578,10.49219 l 0.008,0.008 0.008,0.01 c 2.34948,2.79001 5.75396,4.03125 9.87891,4.03125 2.31433,0 4.79629,-0.33114 7.41601,-0.96485 2.63182,-0.59934 4.84244,-1.42108 6.47852,-2.54296 l 0.98438,-0.67579 v -7.61718 l -2.69727,0.51953 c -3.04486,0.58696 -5.54016,0.86328 -7.54492,0.86328 -1.15343,0 -2.09164,-0.43189 -2.7168,-1.11133 -0.60455,-0.69638 -1.06641,-1.92612 -1.06641,-4.0293 V 78.224609 h 12.16016 V 68.9375 H 671.45312 V 56.890625 Z M 154.70117,67.523437 c -7.80023,10e-7 -13.90954,2.420035 -18.35351,7.640625 -4.34436,5.10357 -6.36719,12.654447 -6.36719,22.226563 0,10.096875 1.97973,17.912005 6.25781,22.910155 l 0.004,0.004 0.004,0.004 c 4.4365,5.13243 11.15365,7.45899 19.86914,7.45899 3.44789,0 6.82087,-0.46096 10.10743,-1.38281 3.256,-0.90227 5.97388,-2.00596 8.0332,-3.33594 l 1.03711,-0.66992 v -7.2461 l -2.77344,0.63477 c -1.70798,0.39142 -3.92282,0.75597 -6.66797,1.08984 -2.7322,0.3323 -5.03826,0.49219 -6.96484,0.49219 -3.59186,0 -6.2823,-0.69513 -8.23828,-1.91602 -1.90891,-1.21479 -3.41593,-3.04271 -4.41407,-5.48046 -0.90775,-2.33758 -1.3737,-5.71639 -1.46484,-10.068364 h 32.61524 v -6.904297 c 0,-16.540183 -7.67703,-25.457032 -22.6836,-25.457032 z m 94.91016,0 c -2.5169,0 -5.50828,0.623488 -8.91211,1.757813 0.006,-0.002 0.0114,-0.0058 0.0176,-0.0078 l -0.0215,0.0078 c -2.32782,0.750284 -4.53551,1.701765 -6.6875,2.746094 L 233.64258,68.9375 h -19.43946 v 6.632812 l 6.39063,1.416016 v 41.601562 l -6.39063,1.41602 v 6.63281 h 27.4961 v -6.67774 l -7.18164,-1.41406 V 79.943359 c 3.99664,-0.799971 7.47668,-1.267578 10.23047,-1.267578 2.72457,0 4.38912,0.771638 5.32812,1.898438 l 0.0156,0.01953 0.0176,0.01953 c 1.08352,1.242076 1.75977,3.130321 1.75977,5.863281 v 32.07422 l -7.07031,1.41406 v 6.67188 h 27.4414 V 120 l -6.44726,-1.41406 V 85.457031 c 0,-5.442472 -1.251,-9.920716 -4.06445,-13.142578 -2.88339,-3.301938 -7.02232,-4.791016 -12.11719,-4.791016 z m 148.53125,0 c -2.5169,0 -5.50828,0.623489 -8.91211,1.757813 0.006,-0.002 0.0114,-0.0058 0.0176,-0.0078 l -0.0215,0.0078 c -2.32782,0.750284 -4.53551,1.701765 -6.6875,2.746094 L 382.17383,68.9375 h -19.43946 v 6.632812 l 6.39063,1.416016 v 41.601562 l -6.39063,1.41602 v 6.63281 h 27.4961 v -6.67774 l -7.18164,-1.41406 V 79.943359 c 3.99664,-0.799971 7.47668,-1.267578 10.23047,-1.267578 2.72458,0 4.38913,0.771643 5.32812,1.898438 l 0.0156,0.01953 0.0176,0.01953 c 1.08352,1.242073 1.75977,3.130318 1.75977,5.863281 v 32.07422 l -7.07031,1.41406 v 6.67188 h 27.4414 V 120 l -6.44726,-1.41406 V 85.457031 c 0,-5.442472 -1.251,-9.920716 -4.06445,-13.142578 -2.88339,-3.301938 -7.02232,-4.791016 -12.11719,-4.791016 z m 164.59375,0 c -2.73448,0 -5.78513,0.616013 -9.10938,1.763672 -2.2,0.759526 -4.29451,1.688899 -6.34179,2.695313 L 546.96289,68.9375 h -19.86133 v 6.652344 l 6.73047,1.414062 v 41.566404 l -6.73047,1.41407 v 6.65234 h 28.62696 v -6.71289 l -7.97461,-1.41406 V 80.28125 c 3.98681,-0.79918 7.43647,-1.265625 10.11914,-1.265625 2.77973,0 4.49537,0.720627 5.52539,1.824219 l 0.0176,0.01953 0.0195,0.01953 c 1.09156,1.116952 1.78515,2.884133 1.78515,5.597656 v 32.03711 l -7.86133,1.41406 v 6.70899 h 29.75977 v -6.71289 l -7.97461,-1.41406 V 85.457031 c 0,-1.73388 -0.20719,-3.363195 -0.51172,-4.943359 0.24136,-0.0465 0.39434,-0.07469 0.6543,-0.125 l 0.0254,-0.0059 0.0273,-0.0059 c 1.1541,-0.252458 2.34628,-0.470652 3.56836,-0.650391 1.30036,-0.185764 2.58323,-0.350196 3.83985,-0.498046 1.26477,-0.144546 2.31526,-0.212891 3.19336,-0.212891 4.71191,0 6.78125,2.118349 6.78125,7.460937 v 32.035159 l -7.91797,1.41406 v 6.71094 h 28.68359 v -6.66016 l -6.8418,-1.41406 V 85.457031 c 0,-11.508526 -5.37508,-17.933594 -15.84179,-17.933594 -2.83939,0 -6.39092,0.696165 -10.41992,1.97461 -3.2767,1.049817 -6.16368,2.278977 -8.8125,3.615234 -1.25137,-1.649495 -2.74519,-3.046474 -4.73438,-3.923828 -2.50015,-1.119052 -5.20979,-1.666016 -8.10156,-1.666016 z m 149.38086,0 c -7.80023,10e-7 -13.9112,2.419679 -18.35547,7.640625 -4.3446,5.103839 -6.36524,12.654747 -6.36524,22.226563 0,10.096615 1.97757,17.911755 6.25586,22.910155 l 0.004,0.004 0.004,0.004 c 4.43678,5.13275 11.15561,7.45899 19.87109,7.45899 3.44789,0 6.81916,-0.46103 10.10547,-1.38281 3.25579,-0.90221 5.97529,-2.00561 8.03515,-3.33594 l 1.03711,-0.66992 v -7.2461 l -2.77343,0.63477 c -1.70799,0.39142 -3.92283,0.75597 -6.66797,1.08984 -2.7322,0.3323 -5.03827,0.49219 -6.96485,0.49219 -3.59185,0 -6.28229,-0.69513 -8.23828,-1.91602 -1.90891,-1.21479 -3.41594,-3.04271 -4.41406,-5.48046 -0.90775,-2.33758 -1.37371,-5.71639 -1.46484,-10.068364 h 32.61523 v -6.904297 c 0,-16.540183 -7.67702,-25.457031 -22.68359,-25.457032 z M 182.07422,68.9375 v 6.693359 l 7.52148,1.414063 v 41.423828 l -9.04883,1.41406 v 6.75391 H 212.625 v -6.75586 l -9.10547,-1.41211 V 68.9375 Z m 120.36523,0 v 6.65625 l 6.78711,1.414062 v 32.882818 c 0,11.47468 5.38023,17.87695 15.8418,17.87695 2.66956,0 5.85181,-0.58836 9.47656,-1.67969 l 0.01,-0.004 0.0117,-0.004 c 2.42309,-0.75559 4.60683,-1.64095 6.67968,-2.58594 l 0.33203,3.14258 h 19.80469 v -6.65234 l -6.73047,-1.41407 V 68.9375 h -21.89843 v 6.716797 l 8.03125,1.412109 v 38.281254 c -3.39707,0.82526 -6.98176,1.32422 -10.85352,1.32422 -4.71191,0 -6.78125,-2.11835 -6.78125,-7.46094 V 68.9375 Z m 192.75977,0 v 6.693359 l 7.52148,1.414063 v 41.423828 l -9.04883,1.41406 v 6.75391 H 525.75 v -6.75586 l -9.10547,-1.41211 V 68.9375 Z m 124.77148,0 v 6.693359 l 7.52344,1.414063 v 41.423828 l -9.04883,1.41406 v 6.75391 h 32.07813 v -6.75586 l -9.10547,-1.41211 V 68.9375 Z m -465.26953,7.646484 c 2.81677,0 4.73379,1.082746 6.02735,3.248047 l 0.004,0.0059 0.004,0.0059 c 1.23101,2.033854 1.91051,5.833689 2.10742,10.980469 H 144.9082 c 0.23035,-4.715321 1.12819,-8.199886 2.63477,-10.50586 1.66188,-2.489117 4.00234,-3.734375 7.1582,-3.734375 z m 557.41602,0 c 2.81677,0 4.73378,1.082746 6.02734,3.248047 l 0.004,0.0059 0.004,0.0059 c 1.23102,2.033854 1.91051,5.833689 2.10743,10.980469 h -17.93555 c 0.23035,-4.715321 1.12819,-8.199886 2.63476,-10.50586 1.66188,-2.489117 4.00235,-3.734375 7.15821,-3.734375 z m 54.75,0.113282 c 3.44337,0 6.45164,0.261182 9.21484,0.673828 v 38.376956 c -2.75117,0.99193 -5.77449,1.60156 -9.21484,1.60156 -4.30579,0 -7.31122,-1.51712 -9.20899,-4.26758 l -0.002,-0.002 c -2.06228,-3.03036 -3.22461,-7.84363 -3.22461,-14.783205 0,-15.241977 4.39614,-21.599609 12.43555,-21.599609 z"
       id="use1"
       inkscape:path-effect="#path-effect1;#path-effect2"
       inkscape:original-d="m 36.488622,103.95161 h 3.676182 l 1.979482,10.23675 q 2.092596,2.65816 7.182694,4.6942 5.146654,2.03604 10.123639,2.03604 7.91793,0 12.329348,-4.01552 4.467974,-4.07208 4.467974,-11.19822 0,-4.07208 -1.753256,-6.730239 -1.696699,-2.658162 -4.524531,-4.467975 -2.771275,-1.866369 -6.334344,-3.110615 -3.563068,-1.300803 -7.352363,-2.601606 -3.732739,-1.300802 -7.295807,-2.884388 -3.563069,-1.583586 -6.390901,-4.015522 -2.771275,-2.431936 -4.524531,-5.995004 -1.696699,-3.619625 -1.696699,-8.879393 0,-9.049063 6.786797,-14.195717 6.786797,-5.146654 18.833362,-5.146654 9.162176,0 19.907938,2.431935 v 15.779303 h -3.676182 l -1.979483,-9.275289 q -5.768777,-4.185192 -14.252273,-4.185192 -7.57859,0 -11.876895,3.110616 -4.241748,3.054058 -4.241748,8.483496 0,3.676182 1.696699,6.108117 1.753256,2.431936 4.524531,4.185192 2.827832,1.696699 6.390901,2.940945 3.619625,1.244246 7.352363,2.601606 3.789295,1.300803 7.352364,2.997502 3.619625,1.640143 6.3909,4.241748 2.827832,2.545049 4.524532,6.277787 1.753256,3.676182 1.753256,9.105617 0,10.97199 -6.730241,17.02355 -6.73024,5.99501 -19.398928,5.99501 -6.108117,0 -12.272791,-1.07458 -6.164674,-1.07458 -10.971989,-2.94095 z m 76.695338,21.54808 q -5.42944,0 -8.14416,-3.22373 -2.65816,-3.22373 -2.65816,-9.04907 V 75.956068 h -6.956465 v -2.545049 l 7.069585,-2.205709 5.71222,-12.046565 h 3.56306 V 71.20531 h 12.15968 v 4.750758 h -12.15968 v 36.252812 q 0,3.67618 1.64015,5.54255 1.6967,1.86637 4.41142,1.86637 3.28028,0 7.97448,-0.90491 v 3.67618 q -1.97948,1.35736 -5.71222,2.20571 -3.73274,0.90491 -6.89991,0.90491 z m 29.24432,-27.882429 v 1.01802 q 0,7.804819 1.6967,12.159679 1.75326,4.2983 5.31633,6.56057 3.61962,2.26227 9.44495,2.26227 3.05406,0 7.23925,-0.50901 4.1852,-0.50901 6.89991,-1.13114 v 3.16717 q -2.71471,1.75326 -7.40892,3.05406 -4.63764,1.30081 -9.50151,1.30081 -12.38591,0 -18.15468,-6.67369 -5.71222,-6.67368 -5.71222,-21.434965 0,-13.912934 5.82533,-20.756288 5.82533,-6.843353 16.62765,-6.843353 20.41695,0 20.41695,23.188223 v 4.637644 z m 12.27279,-23.301336 q -5.88189,0 -9.04906,4.750758 -3.11062,4.750758 -3.11062,14.026047 h 22.73577 q 0,-10.123639 -2.6016,-14.421944 -2.60161,-4.354861 -7.97449,-4.354861 z m 47.11621,-20.473504 q 0,2.488492 -1.80981,4.298304 -1.80981,1.809813 -4.35486,1.809813 -2.48849,0 -4.29831,-1.809813 -1.80981,-1.809812 -1.80981,-4.298304 0,-2.545049 1.80981,-4.354862 1.80982,-1.809812 4.29831,-1.809812 2.54505,0 4.35486,1.809812 1.80981,1.809813 1.80981,4.354862 z m -0.56556,66.567169 9.10561,1.41391 v 2.54505 h -27.54308 v -2.54505 l 9.04906,-1.41391 V 75.164275 l -7.52203,-1.413916 V 71.20531 h 16.91044 z m 30.88447,-44.905976 q 4.35486,-2.488492 9.27529,-4.072078 4.92042,-1.640142 8.20071,-1.640142 6.89991,0 10.40642,4.015521 3.50651,4.015522 3.50651,11.650668 v 34.952007 l 6.44746,1.41391 v 2.54505 h -22.90544 v -2.54505 l 7.06958,-1.41391 V 86.475603 q 0,-4.694201 -2.31882,-7.352363 -2.26227,-2.714719 -7.06958,-2.714719 -5.0901,0 -12.49902,1.640142 v 42.360927 l 7.18269,1.41391 v 2.54505 H 216.47 v -2.54505 l 6.3909,-1.41391 V 75.164275 L 216.47,73.750359 V 71.20531 h 15.15718 z m 88.74642,33.707756 q 0,9.72775 9.04906,9.72775 7.01303,0 13.12114,-1.75326 V 75.164275 l -8.03104,-1.413916 V 71.20531 h 17.36289 v 49.20428 l 6.73024,1.41391 v 2.54505 h -15.49652 l -0.45245,-4.2983 q -4.01553,2.20571 -9.27529,3.84585 -5.25977,1.58359 -8.82284,1.58359 -13.57359,0 -13.57359,-15.60964 V 75.164275 l -6.7868,-1.413916 V 71.20531 h 16.1752 z m 59.7849,-33.707756 q 4.35486,-2.488492 9.27529,-4.072078 4.92043,-1.640142 8.20072,-1.640142 6.89991,0 10.40642,4.015521 3.50651,4.015522 3.50651,11.650668 v 34.952007 l 6.44746,1.41391 v 2.54505 h -22.90544 v -2.54505 l 7.06958,-1.41391 V 86.475603 q 0,-4.694201 -2.31883,-7.352363 -2.26226,-2.714719 -7.06958,-2.714719 -5.09009,0 -12.49901,1.640142 v 42.360927 l 7.18269,1.41391 v 2.54505 h -22.962 v -2.54505 l 6.3909,-1.41391 V 75.164275 l -6.3909,-1.413916 V 71.20531 h 15.15718 z m 76.52567,-23.980016 -11.70722,1.470473 v 66.510609 h 14.93095 q 12.04657,0 17.70223,-1.13113 l 3.50651,-15.7793 h 3.67618 l -1.01802,21.7743 h -59.44103 v -2.9975 l 9.72775,-1.52703 V 52.994071 l -9.72775,-1.470473 v -2.997502 h 32.3504 z m 57.74889,2.318823 q 0,2.488492 -1.80981,4.298304 -1.80982,1.809813 -4.35487,1.809813 -2.48849,0 -4.2983,-1.809813 -1.80981,-1.809812 -1.80981,-4.298304 0,-2.545049 1.80981,-4.354862 1.80981,-1.809812 4.2983,-1.809812 2.54505,0 4.35487,1.809812 1.80981,1.809813 1.80981,4.354862 z m -0.56557,66.567169 9.10562,1.41391 v 2.54505 h -27.54308 v -2.54505 l 9.04906,-1.41391 V 75.164275 l -7.52203,-1.413916 V 71.20531 h 16.91043 z m 30.99757,-44.905976 q 4.24175,-2.431935 8.99251,-4.072078 4.75075,-1.640142 8.37038,-1.640142 3.90241,0 7.18269,1.470472 3.33685,1.470473 4.97699,4.694202 4.35486,-2.431936 10.18019,-4.298305 5.88189,-1.866369 9.72775,-1.866369 13.57359,0 13.57359,15.666189 v 34.952007 l 6.84335,1.41391 v 2.54505 h -24.14968 v -2.54505 l 7.91793,-1.41391 V 86.475603 q 0,-9.727742 -9.04907,-9.727742 -1.47047,0 -3.44995,0.226226 -1.92293,0.226227 -3.90241,0.50901 -1.92292,0.282783 -3.73274,0.67868 -1.75325,0.339339 -2.94094,0.565566 0.96146,3.054059 0.96146,6.73024 v 34.952007 l 7.97449,1.41391 v 2.54505 h -25.22427 v -2.54505 l 7.86138,-1.41391 V 86.475603 q 0,-4.694201 -2.43194,-7.182694 -2.37538,-2.545048 -7.18269,-2.545048 -4.97699,0 -12.38591,1.640142 v 42.021587 l 7.97449,1.41391 v 2.54505 h -24.09313 v -2.54505 l 6.73024,-1.41391 V 75.164275 l -6.73024,-1.413916 V 71.20531 h 15.55308 z m 94.34104,-21.661193 q 0,2.488492 -1.80981,4.298304 -1.80982,1.809813 -4.35486,1.809813 -2.4885,0 -4.29831,-1.809813 -1.80981,-1.809812 -1.80981,-4.298304 0,-2.545049 1.80981,-4.354862 1.80981,-1.809812 4.29831,-1.809812 2.54504,0 4.35486,1.809812 1.80981,1.809813 1.80981,4.354862 z m -0.56557,66.567169 9.10562,1.41391 v 2.54505 h -27.54308 v -2.54505 l 9.04906,-1.41391 V 75.164275 l -7.52203,-1.413916 V 71.20531 h 16.91043 z m 31.45002,5.0901 q -5.42943,0 -8.14415,-3.22373 -2.65816,-3.22373 -2.65816,-9.04907 V 75.956068 h -6.95647 v -2.545049 l 7.06958,-2.205709 5.71222,-12.046565 h 3.56307 V 71.20531 h 12.15968 v 4.750758 h -12.15968 v 36.252812 q 0,3.67618 1.64014,5.54255 1.6967,1.86637 4.41142,1.86637 3.28028,0 7.97449,-0.90491 v 3.67618 q -1.97949,1.35736 -5.71222,2.20571 -3.73274,0.90491 -6.89992,0.90491 z m 29.24432,-27.882429 v 1.01802 q 0,7.804819 1.6967,12.159679 1.75325,4.2983 5.31632,6.56057 3.61963,2.26227 9.44496,2.26227 3.05406,0 7.23925,-0.50901 4.18519,-0.50901 6.89991,-1.13114 v 3.16717 q -2.71472,1.75326 -7.40892,3.05406 -4.63764,1.30081 -9.50152,1.30081 -12.3859,0 -18.15468,-6.67369 -5.71222,-6.67368 -5.71222,-21.434965 0,-13.912934 5.82534,-20.756288 5.82533,-6.843353 16.62765,-6.843353 20.41695,0 20.41695,23.188223 v 4.637644 z m 12.27279,-23.301336 q -5.88189,0 -9.04906,4.750758 -3.11062,4.750758 -3.11062,14.026047 h 22.73577 q 0,-10.123639 -2.6016,-14.421944 -2.60161,-4.354861 -7.97449,-4.354861 z m 66.57169,46.093665 q -6.39091,5.0901 -14.93096,5.0901 -21.77431,0 -21.77431,-27.203749 0,-13.96949 6.16468,-21.208741 6.16467,-7.295806 18.15468,-7.295806 6.10812,0 12.38591,1.300802 -0.33934,-1.866369 -0.33934,-9.388402 V 47.903973 l -8.93595,-1.357359 v -2.545049 h 18.32435 v 76.408025 l 6.56057,1.41391 v 2.54505 H 779.36703 Z M 752.16329,98.295941 q 0,10.745759 3.61963,16.062089 3.61962,5.25977 11.0851,5.25977 6.3909,0 11.481,-2.20571 V 75.390501 q -5.03355,-0.961463 -11.481,-0.961463 -14.70473,0 -14.70473,23.866903 z"
       transform="matrix(0.73672,0,0,1.3573678,16.659326,-4.8647753)"
       class="fromclone"
       style="font-size:115.828px;line-height:1.6;font-family:Cantarell;-inkscape-font-specification:Cantarell;letter-spacing:1.24878px;display:inline;opacity:1;mix-blend-mode:normal;fill:#027f00;fill-opacity:0;stroke:#4325a4;stroke-width:1.757;stroke-dasharray:none;stroke-opacity:1;paint-order:normal;filter:url(#filter23)" />
    <text
       xml:space="preserve"
       style="font-size:115.828px;line-height:1.6;font-family:Cantarell;-inkscape-font-specification:Cantarell;letter-spacing:1.24878px;display:inline;opacity:1;mix-blend-mode:normal;fill:#027f00;fill-opacity:0;stroke:#ffffff;stroke-width:1.757;stroke-dasharray:none;stroke-opacity:1;paint-order:normal;filter:url(#filter26)"
       x="28.627249"
       y="124.36855"
       id="text1"
       transform="matrix(0.73672,0,0,1.3573678,16.659326,-4.8647753)"
       inkscape:label="original"><tspan
         sodipodi:role="line"
         id="tspan1"
         x="0"
         y="0"
         style="font-style:normal;font-variant:normal;font-weight:normal;font-stretch:normal;font-size:115.828px;font-family:'Liberation Serif';-inkscape-font-specification:'Liberation Serif';fill:#027f00;fill-opacity:0;stroke:#ffffff;stroke-width:1.757;stroke-dasharray:none;stroke-opacity:1;paint-order:normal">Stein unLimited</tspan></text>
    <path
       d="m 36.488622,103.95161 h 3.676182 l 1.979482,10.23675 q 2.092596,2.65816 7.182694,4.6942 5.146654,2.03604 10.123639,2.03604 7.91793,0 12.329348,-4.01552 4.467974,-4.07208 4.467974,-11.19822 0,-4.07208 -1.753256,-6.730239 -1.696699,-2.658162 -4.524531,-4.467975 -2.771275,-1.866369 -6.334344,-3.110615 -3.563068,-1.300803 -7.352363,-2.601606 -3.732739,-1.300802 -7.295807,-2.884388 -3.563069,-1.583586 -6.390901,-4.015522 -2.771275,-2.431936 -4.524531,-5.995004 -1.696699,-3.619625 -1.696699,-8.879393 0,-9.049063 6.786797,-14.195717 6.786797,-5.146654 18.833362,-5.146654 9.162176,0 19.907938,2.431935 v 15.779303 h -3.676182 l -1.979483,-9.275289 q -5.768777,-4.185192 -14.252273,-4.185192 -7.57859,0 -11.876895,3.110616 -4.241748,3.054058 -4.241748,8.483496 0,3.676182 1.696699,6.108117 1.753256,2.431936 4.524531,4.185192 2.827832,1.696699 6.390901,2.940945 3.619625,1.244246 7.352363,2.601606 3.789295,1.300803 7.352364,2.997502 3.619625,1.640143 6.3909,4.241748 2.827832,2.545049 4.524532,6.277787 1.753256,3.676182 1.753256,9.105617 0,10.97199 -6.730241,17.02355 -6.73024,5.99501 -19.398928,5.99501 -6.108117,0 -12.272791,-1.07458 -6.164674,-1.07458 -10.971989,-2.94095 z m 76.695338,21.54808 q -5.42944,0 -8.14416,-3.22373 -2.65816,-3.22373 -2.65816,-9.04907 V 75.956068 h -6.956465 v -2.545049 l 7.069585,-2.205709 5.71222,-12.046565 h 3.56306 V 71.20531 h 12.15968 v 4.750758 h -12.15968 v 36.252812 q 0,3.67618 1.64015,5.54255 1.6967,1.86637 4.41142,1.86637 3.28028,0 7.97448,-0.90491 v 3.67618 q -1.97948,1.35736 -5.71222,2.20571 -3.73274,0.90491 -6.89991,0.90491 z m 29.24432,-27.882429 v 1.01802 q 0,7.804819 1.6967,12.159679 1.75326,4.2983 5.31633,6.56057 3.61962,2.26227 9.44495,2.26227 3.05406,0 7.23925,-0.50901 4.1852,-0.50901 6.89991,-1.13114 v 3.16717 q -2.71471,1.75326 -7.40892,3.05406 -4.63764,1.30081 -9.50151,1.30081 -12.38591,0 -18.15468,-6.67369 -5.71222,-6.67368 -5.71222,-21.434965 0,-13.912934 5.82533,-20.756288 5.82533,-6.843353 16.62765,-6.843353 20.41695,0 20.41695,23.188223 v 4.637644 z m 12.27279,-23.301336 q -5.88189,0 -9.04906,4.750758 -3.11062,4.750758 -3.11062,14.026047 h 22.73577 q 0,-10.123639 -2.6016,-14.421944 -2.60161,-4.354861 -7.97449,-4.354861 z m 47.11621,-20.473504 q 0,2.488492 -1.80981,4.298304 -1.80981,1.809813 -4.35486,1.809813 -2.48849,0 -4.29831,-1.809813 -1.80981,-1.809812 -1.80981,-4.298304 0,-2.545049 1.80981,-4.354862 1.80982,-1.809812 4.29831,-1.809812 2.54505,0 4.35486,1.809812 1.80981,1.809813 1.80981,4.354862 z m -0.56556,66.567169 9.10561,1.41391 v 2.54505 h -27.54308 v -2.54505 l 9.04906,-1.41391 V 75.164275 l -7.52203,-1.413916 V 71.20531 h 16.91044 z m 30.88447,-44.905976 q 4.35486,-2.488492 9.27529,-4.072078 4.92042,-1.640142 8.20071,-1.640142 6.89991,0 10.40642,4.015521 3.50651,4.015522 3.50651,11.650668 v 34.952007 l 6.44746,1.41391 v 2.54505 h -22.90544 v -2.54505 l 7.06958,-1.41391 V 86.475603 q 0,-4.694201 -2.31882,-7.352363 -2.26227,-2.714719 -7.06958,-2.714719 -5.0901,0 -12.49902,1.640142 v 42.360927 l 7.18269,1.41391 v 2.54505 H 216.47 v -2.54505 l 6.3909,-1.41391 V 75.164275 L 216.47,73.750359 V 71.20531 h 15.15718 z m 88.74642,33.707756 q 0,9.72775 9.04906,9.72775 7.01303,0 13.12114,-1.75326 V 75.164275 l -8.03104,-1.413916 V 71.20531 h 17.36289 v 49.20428 l 6.73024,1.41391 v 2.54505 h -15.49652 l -0.45245,-4.2983 q -4.01553,2.20571 -9.27529,3.84585 -5.25977,1.58359 -8.82284,1.58359 -13.57359,0 -13.57359,-15.60964 V 75.164275 l -6.7868,-1.413916 V 71.20531 h 16.1752 z m 59.7849,-33.707756 q 4.35486,-2.488492 9.27529,-4.072078 4.92043,-1.640142 8.20072,-1.640142 6.89991,0 10.40642,4.015521 3.50651,4.015522 3.50651,11.650668 v 34.952007 l 6.44746,1.41391 v 2.54505 h -22.90544 v -2.54505 l 7.06958,-1.41391 V 86.475603 q 0,-4.694201 -2.31883,-7.352363 -2.26226,-2.714719 -7.06958,-2.714719 -5.09009,0 -12.49901,1.640142 v 42.360927 l 7.18269,1.41391 v 2.54505 h -22.962 v -2.54505 l 6.3909,-1.41391 V 75.164275 l -6.3909,-1.413916 V 71.20531 h 15.15718 z m 76.52567,-23.980016 -11.70722,1.470473 v 66.510609 h 14.93095 q 12.04657,0 17.70223,-1.13113 l 3.50651,-15.7793 h 3.67618 l -1.01802,21.7743 h -59.44103 v -2.9975 l 9.72775,-1.52703 V 52.994071 l -9.72775,-1.470473 v -2.997502 h 32.3504 z m 57.74889,2.318823 q 0,2.488492 -1.80981,4.298304 -1.80982,1.809813 -4.35487,1.809813 -2.48849,0 -4.2983,-1.809813 -1.80981,-1.809812 -1.80981,-4.298304 0,-2.545049 1.80981,-4.354862 1.80981,-1.809812 4.2983,-1.809812 2.54505,0 4.35487,1.809812 1.80981,1.809813 1.80981,4.354862 z m -0.56557,66.567169 9.10562,1.41391 v 2.54505 h -27.54308 v -2.54505 l 9.04906,-1.41391 V 75.164275 l -7.52203,-1.413916 V 71.20531 h 16.91043 z m 30.99757,-44.905976 q 4.24175,-2.431935 8.99251,-4.072078 4.75075,-1.640142 8.37038,-1.640142 3.90241,0 7.18269,1.470472 3.33685,1.470473 4.97699,4.694202 4.35486,-2.431936 10.18019,-4.298305 5.88189,-1.866369 9.72775,-1.866369 13.57359,0 13.57359,15.666189 v 34.952007 l 6.84335,1.41391 v 2.54505 h -24.14968 v -2.54505 l 7.91793,-1.41391 V 86.475603 q 0,-9.727742 -9.04907,-9.727742 -1.47047,0 -3.44995,0.226226 -1.92293,0.226227 -3.90241,0.50901 -1.92292,0.282783 -3.73274,0.67868 -1.75325,0.339339 -2.94094,0.565566 0.96146,3.054059 0.96146,6.73024 v 34.952007 l 7.97449,1.41391 v 2.54505 h -25.22427 v -2.54505 l 7.86138,-1.41391 V 86.475603 q 0,-4.694201 -2.43194,-7.182694 -2.37538,-2.545048 -7.18269,-2.545048 -4.97699,0 -12.38591,1.640142 v 42.021587 l 7.97449,1.41391 v 2.54505 h -24.09313 v -2.54505 l 6.73024,-1.41391 V 75.164275 l -6.73024,-1.413916 V 71.20531 h 15.55308 z m 94.34104,-21.661193 q 0,2.488492 -1.80981,4.298304 -1.80982,1.809813 -4.35486,1.809813 -2.4885,0 -4.29831,-1.809813 -1.80981,-1.809812 -1.80981,-4.298304 0,-2.545049 1.80981,-4.354862 1.80981,-1.809812 4.29831,-1.809812 2.54504,0 4.35486,1.809812 1.80981,1.809813 1.80981,4.354862 z m -0.56557,66.567169 9.10562,1.41391 v 2.54505 h -27.54308 v -2.54505 l 9.04906,-1.41391 V 75.164275 l -7.52203,-1.413916 V 71.20531 h 16.91043 z m 31.45002,5.0901 q -5.42943,0 -8.14415,-3.22373 -2.65816,-3.22373 -2.65816,-9.04907 V 75.956068 h -6.95647 v -2.545049 l 7.06958,-2.205709 5.71222,-12.046565 h 3.56307 V 71.20531 h 12.15968 v 4.750758 h -12.15968 v 36.252812 q 0,3.67618 1.64014,5.54255 1.6967,1.86637 4.41142,1.86637 3.28028,0 7.97449,-0.90491 v 3.67618 q -1.97949,1.35736 -5.71222,2.20571 -3.73274,0.90491 -6.89992,0.90491 z m 29.24432,-27.882429 v 1.01802 q 0,7.804819 1.6967,12.159679 1.75325,4.2983 5.31632,6.56057 3.61963,2.26227 9.44496,2.26227 3.05406,0 7.23925,-0.50901 4.18519,-0.50901 6.89991,-1.13114 v 3.16717 q -2.71472,1.75326 -7.40892,3.05406 -4.63764,1.30081 -9.50152,1.30081 -12.3859,0 -18.15468,-6.67369 -5.71222,-6.67368 -5.71222,-21.434965 0,-13.912934 5.82534,-20.756288 5.82533,-6.843353 16.62765,-6.843353 20.41695,0 20.41695,23.188223 v 4.637644 z m 12.27279,-23.301336 q -5.88189,0 -9.04906,4.750758 -3.11062,4.750758 -3.11062,14.026047 h 22.73577 q 0,-10.123639 -2.6016,-14.421944 -2.60161,-4.354861 -7.97449,-4.354861 z m 66.57169,46.093665 q -6.39091,5.0901 -14.93096,5.0901 -21.77431,0 -21.77431,-27.203749 0,-13.96949 6.16468,-21.208741 6.16467,-7.295806 18.15468,-7.295806 6.10812,0 12.38591,1.300802 -0.33934,-1.866369 -0.33934,-9.388402 V 47.903973 l -8.93595,-1.357359 v -2.545049 h 18.32435 v 76.408025 l 6.56057,1.41391 v 2.54505 H 779.36703 Z M 752.16329,98.295941 q 0,10.745759 3.61963,16.062089 3.61962,5.25977 11.0851,5.25977 6.3909,0 11.481,-2.20571 V 75.390501 q -5.03355,-0.961463 -11.481,-0.961463 -14.70473,0 -14.70473,23.866903 z"
       id="path7"
       inkscape:path-effect="#path-effect9"
       inkscape:original-d="m 36.488622,103.95161 h 3.676182 l 1.979482,10.23675 q 2.092596,2.65816 7.182694,4.6942 5.146654,2.03604 10.123639,2.03604 7.91793,0 12.329348,-4.01552 4.467974,-4.07208 4.467974,-11.19822 0,-4.07208 -1.753256,-6.730239 -1.696699,-2.658162 -4.524531,-4.467975 -2.771275,-1.866369 -6.334344,-3.110615 -3.563068,-1.300803 -7.352363,-2.601606 -3.732739,-1.300802 -7.295807,-2.884388 -3.563069,-1.583586 -6.390901,-4.015522 -2.771275,-2.431936 -4.524531,-5.995004 -1.696699,-3.619625 -1.696699,-8.879393 0,-9.049063 6.786797,-14.195717 6.786797,-5.146654 18.833362,-5.146654 9.162176,0 19.907938,2.431935 v 15.779303 h -3.676182 l -1.979483,-9.275289 q -5.768777,-4.185192 -14.252273,-4.185192 -7.57859,0 -11.876895,3.110616 -4.241748,3.054058 -4.241748,8.483496 0,3.676182 1.696699,6.108117 1.753256,2.431936 4.524531,4.185192 2.827832,1.696699 6.390901,2.940945 3.619625,1.244246 7.352363,2.601606 3.789295,1.300803 7.352364,2.997502 3.619625,1.640143 6.3909,4.241748 2.827832,2.545049 4.524532,6.277787 1.753256,3.676182 1.753256,9.105617 0,10.97199 -6.730241,17.02355 -6.73024,5.99501 -19.398928,5.99501 -6.108117,0 -12.272791,-1.07458 -6.164674,-1.07458 -10.971989,-2.94095 z m 76.695338,21.54808 q -5.42944,0 -8.14416,-3.22373 -2.65816,-3.22373 -2.65816,-9.04907 V 75.956068 h -6.956465 v -2.545049 l 7.069585,-2.205709 5.71222,-12.046565 h 3.56306 V 71.20531 h 12.15968 v 4.750758 h -12.15968 v 36.252812 q 0,3.67618 1.64015,5.54255 1.6967,1.86637 4.41142,1.86637 3.28028,0 7.97448,-0.90491 v 3.67618 q -1.97948,1.35736 -5.71222,2.20571 -3.73274,0.90491 -6.89991,0.90491 z m 29.24432,-27.882429 v 1.01802 q 0,7.804819 1.6967,12.159679 1.75326,4.2983 5.31633,6.56057 3.61962,2.26227 9.44495,2.26227 3.05406,0 7.23925,-0.50901 4.1852,-0.50901 6.89991,-1.13114 v 3.16717 q -2.71471,1.75326 -7.40892,3.05406 -4.63764,1.30081 -9.50151,1.30081 -12.38591,0 -18.15468,-6.67369 -5.71222,-6.67368 -5.71222,-21.434965 0,-13.912934 5.82533,-20.756288 5.82533,-6.843353 16.62765,-6.843353 20.41695,0 20.41695,23.188223 v 4.637644 z m 12.27279,-23.301336 q -5.88189,0 -9.04906,4.750758 -3.11062,4.750758 -3.11062,14.026047 h 22.73577 q 0,-10.123639 -2.6016,-14.421944 -2.60161,-4.354861 -7.97449,-4.354861 z m 47.11621,-20.473504 q 0,2.488492 -1.80981,4.298304 -1.80981,1.809813 -4.35486,1.809813 -2.48849,0 -4.29831,-1.809813 -1.80981,-1.809812 -1.80981,-4.298304 0,-2.545049 1.80981,-4.354862 1.80982,-1.809812 4.29831,-1.809812 2.54505,0 4.35486,1.809812 1.80981,1.809813 1.80981,4.354862 z m -0.56556,66.567169 9.10561,1.41391 v 2.54505 h -27.54308 v -2.54505 l 9.04906,-1.41391 V 75.164275 l -7.52203,-1.413916 V 71.20531 h 16.91044 z m 30.88447,-44.905976 q 4.35486,-2.488492 9.27529,-4.072078 4.92042,-1.640142 8.20071,-1.640142 6.89991,0 10.40642,4.015521 3.50651,4.015522 3.50651,11.650668 v 34.952007 l 6.44746,1.41391 v 2.54505 h -22.90544 v -2.54505 l 7.06958,-1.41391 V 86.475603 q 0,-4.694201 -2.31882,-7.352363 -2.26227,-2.714719 -7.06958,-2.714719 -5.0901,0 -12.49902,1.640142 v 42.360927 l 7.18269,1.41391 v 2.54505 H 216.47 v -2.54505 l 6.3909,-1.41391 V 75.164275 L 216.47,73.750359 V 71.20531 h 15.15718 z m 88.74642,33.707756 q 0,9.72775 9.04906,9.72775 7.01303,0 13.12114,-1.75326 V 75.164275 l -8.03104,-1.413916 V 71.20531 h 17.36289 v 49.20428 l 6.73024,1.41391 v 2.54505 h -15.49652 l -0.45245,-4.2983 q -4.01553,2.20571 -9.27529,3.84585 -5.25977,1.58359 -8.82284,1.58359 -13.57359,0 -13.57359,-15.60964 V 75.164275 l -6.7868,-1.413916 V 71.20531 h 16.1752 z m 59.7849,-33.707756 q 4.35486,-2.488492 9.27529,-4.072078 4.92043,-1.640142 8.20072,-1.640142 6.89991,0 10.40642,4.015521 3.50651,4.015522 3.50651,11.650668 v 34.952007 l 6.44746,1.41391 v 2.54505 h -22.90544 v -2.54505 l 7.06958,-1.41391 V 86.475603 q 0,-4.694201 -2.31883,-7.352363 -2.26226,-2.714719 -7.06958,-2.714719 -5.09009,0 -12.49901,1.640142 v 42.360927 l 7.18269,1.41391 v 2.54505 h -22.962 v -2.54505 l 6.3909,-1.41391 V 75.164275 l -6.3909,-1.413916 V 71.20531 h 15.15718 z m 76.52567,-23.980016 -11.70722,1.470473 v 66.510609 h 14.93095 q 12.04657,0 17.70223,-1.13113 l 3.50651,-15.7793 h 3.67618 l -1.01802,21.7743 h -59.44103 v -2.9975 l 9.72775,-1.52703 V 52.994071 l -9.72775,-1.470473 v -2.997502 h 32.3504 z m 57.74889,2.318823 q 0,2.488492 -1.80981,4.298304 -1.80982,1.809813 -4.35487,1.809813 -2.48849,0 -4.2983,-1.809813 -1.80981,-1.809812 -1.80981,-4.298304 0,-2.545049 1.80981,-4.354862 1.80981,-1.809812 4.2983,-1.809812 2.54505,0 4.35487,1.809812 1.80981,1.809813 1.80981,4.354862 z m -0.56557,66.567169 9.10562,1.41391 v 2.54505 h -27.54308 v -2.54505 l 9.04906,-1.41391 V 75.164275 l -7.52203,-1.413916 V 71.20531 h 16.91043 z m 30.99757,-44.905976 q 4.24175,-2.431935 8.99251,-4.072078 4.75075,-1.640142 8.37038,-1.640142 3.90241,0 7.18269,1.470472 3.33685,1.470473 4.97699,4.694202 4.35486,-2.431936 10.18019,-4.298305 5.88189,-1.866369 9.72775,-1.866369 13.57359,0 13.57359,15.666189 v 34.952007 l 6.84335,1.41391 v 2.54505 h -24.14968 v -2.54505 l 7.91793,-1.41391 V 86.475603 q 0,-9.727742 -9.04907,-9.727742 -1.47047,0 -3.44995,0.226226 -1.92293,0.226227 -3.90241,0.50901 -1.92292,0.282783 -3.73274,0.67868 -1.75325,0.339339 -2.94094,0.565566 0.96146,3.054059 0.96146,6.73024 v 34.952007 l 7.97449,1.41391 v 2.54505 h -25.22427 v -2.54505 l 7.86138,-1.41391 V 86.475603 q 0,-4.694201 -2.43194,-7.182694 -2.37538,-2.545048 -7.18269,-2.545048 -4.97699,0 -12.38591,1.640142 v 42.021587 l 7.97449,1.41391 v 2.54505 h -24.09313 v -2.54505 l 6.73024,-1.41391 V 75.164275 l -6.73024,-1.413916 V 71.20531 h 15.55308 z m 94.34104,-21.661193 q 0,2.488492 -1.80981,4.298304 -1.80982,1.809813 -4.35486,1.809813 -2.4885,0 -4.29831,-1.809813 -1.80981,-1.809812 -1.80981,-4.298304 0,-2.545049 1.80981,-4.354862 1.80981,-1.809812 4.29831,-1.809812 2.54504,0 4.35486,1.809812 1.80981,1.809813 1.80981,4.354862 z m -0.56557,66.567169 9.10562,1.41391 v 2.54505 h -27.54308 v -2.54505 l 9.04906,-1.41391 V 75.164275 l -7.52203,-1.413916 V 71.20531 h 16.91043 z m 31.45002,5.0901 q -5.42943,0 -8.14415,-3.22373 -2.65816,-3.22373 -2.65816,-9.04907 V 75.956068 h -6.95647 v -2.545049 l 7.06958,-2.205709 5.71222,-12.046565 h 3.56307 V 71.20531 h 12.15968 v 4.750758 h -12.15968 v 36.252812 q 0,3.67618 1.64014,5.54255 1.6967,1.86637 4.41142,1.86637 3.28028,0 7.97449,-0.90491 v 3.67618 q -1.97949,1.35736 -5.71222,2.20571 -3.73274,0.90491 -6.89992,0.90491 z m 29.24432,-27.882429 v 1.01802 q 0,7.804819 1.6967,12.159679 1.75325,4.2983 5.31632,6.56057 3.61963,2.26227 9.44496,2.26227 3.05406,0 7.23925,-0.50901 4.18519,-0.50901 6.89991,-1.13114 v 3.16717 q -2.71472,1.75326 -7.40892,3.05406 -4.63764,1.30081 -9.50152,1.30081 -12.3859,0 -18.15468,-6.67369 -5.71222,-6.67368 -5.71222,-21.434965 0,-13.912934 5.82534,-20.756288 5.82533,-6.843353 16.62765,-6.843353 20.41695,0 20.41695,23.188223 v 4.637644 z m 12.27279,-23.301336 q -5.88189,0 -9.04906,4.750758 -3.11062,4.750758 -3.11062,14.026047 h 22.73577 q 0,-10.123639 -2.6016,-14.421944 -2.60161,-4.354861 -7.97449,-4.354861 z m 66.57169,46.093665 q -6.39091,5.0901 -14.93096,5.0901 -21.77431,0 -21.77431,-27.203749 0,-13.96949 6.16468,-21.208741 6.16467,-7.295806 18.15468,-7.295806 6.10812,0 12.38591,1.300802 -0.33934,-1.866369 -0.33934,-9.388402 V 47.903973 l -8.93595,-1.357359 v -2.545049 h 18.32435 v 76.408025 l 6.56057,1.41391 v 2.54505 H 779.36703 Z M 752.16329,98.295941 q 0,10.745759 3.61963,16.062089 3.61962,5.25977 11.0851,5.25977 6.3909,0 11.481,-2.20571 V 75.390501 q -5.03355,-0.961463 -11.481,-0.961463 -14.70473,0 -14.70473,23.866903 z"
       transform="matrix(0.73672,0,0,1.3573678,16.659326,-4.8647753)"
       class="fromclone"
       style="font-size:115.828px;line-height:1.6;font-family:Cantarell;-inkscape-font-specification:Cantarell;letter-spacing:1.24878px;display:none;opacity:0.585956;mix-blend-mode:normal;fill:#027f00;fill-opacity:0;stroke:#46ff46;stroke-width:1.757;stroke-dasharray:none;stroke-opacity:1;paint-order:normal"
       inkscape:label="green"
       sodipodi:insensitive="true" />
    <path
       d="m 36.488622,103.95161 h 3.676182 l 1.979482,10.23675 q 2.092596,2.65816 7.182694,4.6942 5.146654,2.03604 10.123639,2.03604 7.91793,0 12.329348,-4.01552 4.467974,-4.07208 4.467974,-11.19822 0,-4.07208 -1.753256,-6.730239 -1.696699,-2.658162 -4.524531,-4.467975 -2.771275,-1.866369 -6.334344,-3.110615 -3.563068,-1.300803 -7.352363,-2.601606 -3.732739,-1.300802 -7.295807,-2.884388 -3.563069,-1.583586 -6.390901,-4.015522 -2.771275,-2.431936 -4.524531,-5.995004 -1.696699,-3.619625 -1.696699,-8.879393 0,-9.049063 6.786797,-14.195717 6.786797,-5.146654 18.833362,-5.146654 9.162176,0 19.907938,2.431935 v 15.779303 h -3.676182 l -1.979483,-9.275289 q -5.768777,-4.185192 -14.252273,-4.185192 -7.57859,0 -11.876895,3.110616 -4.241748,3.054058 -4.241748,8.483496 0,3.676182 1.696699,6.108117 1.753256,2.431936 4.524531,4.185192 2.827832,1.696699 6.390901,2.940945 3.619625,1.244246 7.352363,2.601606 3.789295,1.300803 7.352364,2.997502 3.619625,1.640143 6.3909,4.241748 2.827832,2.545049 4.524532,6.277787 1.753256,3.676182 1.753256,9.105617 0,10.97199 -6.730241,17.02355 -6.73024,5.99501 -19.398928,5.99501 -6.108117,0 -12.272791,-1.07458 -6.164674,-1.07458 -10.971989,-2.94095 z m 76.695338,21.54808 q -5.42944,0 -8.14416,-3.22373 -2.65816,-3.22373 -2.65816,-9.04907 V 75.956068 h -6.956465 v -2.545049 l 7.069585,-2.205709 5.71222,-12.046565 h 3.56306 V 71.20531 h 12.15968 v 4.750758 h -12.15968 v 36.252812 q 0,3.67618 1.64015,5.54255 1.6967,1.86637 4.41142,1.86637 3.28028,0 7.97448,-0.90491 v 3.67618 q -1.97948,1.35736 -5.71222,2.20571 -3.73274,0.90491 -6.89991,0.90491 z m 29.24432,-27.882429 v 1.01802 q 0,7.804819 1.6967,12.159679 1.75326,4.2983 5.31633,6.56057 3.61962,2.26227 9.44495,2.26227 3.05406,0 7.23925,-0.50901 4.1852,-0.50901 6.89991,-1.13114 v 3.16717 q -2.71471,1.75326 -7.40892,3.05406 -4.63764,1.30081 -9.50151,1.30081 -12.38591,0 -18.15468,-6.67369 -5.71222,-6.67368 -5.71222,-21.434965 0,-13.912934 5.82533,-20.756288 5.82533,-6.843353 16.62765,-6.843353 20.41695,0 20.41695,23.188223 v 4.637644 z m 12.27279,-23.301336 q -5.88189,0 -9.04906,4.750758 -3.11062,4.750758 -3.11062,14.026047 h 22.73577 q 0,-10.123639 -2.6016,-14.421944 -2.60161,-4.354861 -7.97449,-4.354861 z m 47.11621,-20.473504 q 0,2.488492 -1.80981,4.298304 -1.80981,1.809813 -4.35486,1.809813 -2.48849,0 -4.29831,-1.809813 -1.80981,-1.809812 -1.80981,-4.298304 0,-2.545049 1.80981,-4.354862 1.80982,-1.809812 4.29831,-1.809812 2.54505,0 4.35486,1.809812 1.80981,1.809813 1.80981,4.354862 z m -0.56556,66.567169 9.10561,1.41391 v 2.54505 h -27.54308 v -2.54505 l 9.04906,-1.41391 V 75.164275 l -7.52203,-1.413916 V 71.20531 h 16.91044 z m 30.88447,-44.905976 q 4.35486,-2.488492 9.27529,-4.072078 4.92042,-1.640142 8.20071,-1.640142 6.89991,0 10.40642,4.015521 3.50651,4.015522 3.50651,11.650668 v 34.952007 l 6.44746,1.41391 v 2.54505 h -22.90544 v -2.54505 l 7.06958,-1.41391 V 86.475603 q 0,-4.694201 -2.31882,-7.352363 -2.26227,-2.714719 -7.06958,-2.714719 -5.0901,0 -12.49902,1.640142 v 42.360927 l 7.18269,1.41391 v 2.54505 H 216.47 v -2.54505 l 6.3909,-1.41391 V 75.164275 L 216.47,73.750359 V 71.20531 h 15.15718 z m 88.74642,33.707756 q 0,9.72775 9.04906,9.72775 7.01303,0 13.12114,-1.75326 V 75.164275 l -8.03104,-1.413916 V 71.20531 h 17.36289 v 49.20428 l 6.73024,1.41391 v 2.54505 h -15.49652 l -0.45245,-4.2983 q -4.01553,2.20571 -9.27529,3.84585 -5.25977,1.58359 -8.82284,1.58359 -13.57359,0 -13.57359,-15.60964 V 75.164275 l -6.7868,-1.413916 V 71.20531 h 16.1752 z m 59.7849,-33.707756 q 4.35486,-2.488492 9.27529,-4.072078 4.92043,-1.640142 8.20072,-1.640142 6.89991,0 10.40642,4.015521 3.50651,4.015522 3.50651,11.650668 v 34.952007 l 6.44746,1.41391 v 2.54505 h -22.90544 v -2.54505 l 7.06958,-1.41391 V 86.475603 q 0,-4.694201 -2.31883,-7.352363 -2.26226,-2.714719 -7.06958,-2.714719 -5.09009,0 -12.49901,1.640142 v 42.360927 l 7.18269,1.41391 v 2.54505 h -22.962 v -2.54505 l 6.3909,-1.41391 V 75.164275 l -6.3909,-1.413916 V 71.20531 h 15.15718 z m 76.52567,-23.980016 -11.70722,1.470473 v 66.510609 h 14.93095 q 12.04657,0 17.70223,-1.13113 l 3.50651,-15.7793 h 3.67618 l -1.01802,21.7743 h -59.44103 v -2.9975 l 9.72775,-1.52703 V 52.994071 l -9.72775,-1.470473 v -2.997502 h 32.3504 z m 57.74889,2.318823 q 0,2.488492 -1.80981,4.298304 -1.80982,1.809813 -4.35487,1.809813 -2.48849,0 -4.2983,-1.809813 -1.80981,-1.809812 -1.80981,-4.298304 0,-2.545049 1.80981,-4.354862 1.80981,-1.809812 4.2983,-1.809812 2.54505,0 4.35487,1.809812 1.80981,1.809813 1.80981,4.354862 z m -0.56557,66.567169 9.10562,1.41391 v 2.54505 h -27.54308 v -2.54505 l 9.04906,-1.41391 V 75.164275 l -7.52203,-1.413916 V 71.20531 h 16.91043 z m 30.99757,-44.905976 q 4.24175,-2.431935 8.99251,-4.072078 4.75075,-1.640142 8.37038,-1.640142 3.90241,0 7.18269,1.470472 3.33685,1.470473 4.97699,4.694202 4.35486,-2.431936 10.18019,-4.298305 5.88189,-1.866369 9.72775,-1.866369 13.57359,0 13.57359,15.666189 v 34.952007 l 6.84335,1.41391 v 2.54505 h -24.14968 v -2.54505 l 7.91793,-1.41391 V 86.475603 q 0,-9.727742 -9.04907,-9.727742 -1.47047,0 -3.44995,0.226226 -1.92293,0.226227 -3.90241,0.50901 -1.92292,0.282783 -3.73274,0.67868 -1.75325,0.339339 -2.94094,0.565566 0.96146,3.054059 0.96146,6.73024 v 34.952007 l 7.97449,1.41391 v 2.54505 h -25.22427 v -2.54505 l 7.86138,-1.41391 V 86.475603 q 0,-4.694201 -2.43194,-7.182694 -2.37538,-2.545048 -7.18269,-2.545048 -4.97699,0 -12.38591,1.640142 v 42.021587 l 7.97449,1.41391 v 2.54505 h -24.09313 v -2.54505 l 6.73024,-1.41391 V 75.164275 l -6.73024,-1.413916 V 71.20531 h 15.55308 z m 94.34104,-21.661193 q 0,2.488492 -1.80981,4.298304 -1.80982,1.809813 -4.35486,1.809813 -2.4885,0 -4.29831,-1.809813 -1.80981,-1.809812 -1.80981,-4.298304 0,-2.545049 1.80981,-4.354862 1.80981,-1.809812 4.29831,-1.809812 2.54504,0 4.35486,1.809812 1.80981,1.809813 1.80981,4.354862 z m -0.56557,66.567169 9.10562,1.41391 v 2.54505 h -27.54308 v -2.54505 l 9.04906,-1.41391 V 75.164275 l -7.52203,-1.413916 V 71.20531 h 16.91043 z m 31.45002,5.0901 q -5.42943,0 -8.14415,-3.22373 -2.65816,-3.22373 -2.65816,-9.04907 V 75.956068 h -6.95647 v -2.545049 l 7.06958,-2.205709 5.71222,-12.046565 h 3.56307 V 71.20531 h 12.15968 v 4.750758 h -12.15968 v 36.252812 q 0,3.67618 1.64014,5.54255 1.6967,1.86637 4.41142,1.86637 3.28028,0 7.97449,-0.90491 v 3.67618 q -1.97949,1.35736 -5.71222,2.20571 -3.73274,0.90491 -6.89992,0.90491 z m 29.24432,-27.882429 v 1.01802 q 0,7.804819 1.6967,12.159679 1.75325,4.2983 5.31632,6.56057 3.61963,2.26227 9.44496,2.26227 3.05406,0 7.23925,-0.50901 4.18519,-0.50901 6.89991,-1.13114 v 3.16717 q -2.71472,1.75326 -7.40892,3.05406 -4.63764,1.30081 -9.50152,1.30081 -12.3859,0 -18.15468,-6.67369 -5.71222,-6.67368 -5.71222,-21.434965 0,-13.912934 5.82534,-20.756288 5.82533,-6.843353 16.62765,-6.843353 20.41695,0 20.41695,23.188223 v 4.637644 z m 12.27279,-23.301336 q -5.88189,0 -9.04906,4.750758 -3.11062,4.750758 -3.11062,14.026047 h 22.73577 q 0,-10.123639 -2.6016,-14.421944 -2.60161,-4.354861 -7.97449,-4.354861 z m 66.57169,46.093665 q -6.39091,5.0901 -14.93096,5.0901 -21.77431,0 -21.77431,-27.203749 0,-13.96949 6.16468,-21.208741 6.16467,-7.295806 18.15468,-7.295806 6.10812,0 12.38591,1.300802 -0.33934,-1.866369 -0.33934,-9.388402 V 47.903973 l -8.93595,-1.357359 v -2.545049 h 18.32435 v 76.408025 l 6.56057,1.41391 v 2.54505 H 779.36703 Z M 752.16329,98.295941 q 0,10.745759 3.61963,16.062089 3.61962,5.25977 11.0851,5.25977 6.3909,0 11.481,-2.20571 V 75.390501 q -5.03355,-0.961463 -11.481,-0.961463 -14.70473,0 -14.70473,23.866903 z"
       id="path2"
       inkscape:path-effect="#path-effect4"
       inkscape:original-d="m 36.488622,103.95161 h 3.676182 l 1.979482,10.23675 q 2.092596,2.65816 7.182694,4.6942 5.146654,2.03604 10.123639,2.03604 7.91793,0 12.329348,-4.01552 4.467974,-4.07208 4.467974,-11.19822 0,-4.07208 -1.753256,-6.730239 -1.696699,-2.658162 -4.524531,-4.467975 -2.771275,-1.866369 -6.334344,-3.110615 -3.563068,-1.300803 -7.352363,-2.601606 -3.732739,-1.300802 -7.295807,-2.884388 -3.563069,-1.583586 -6.390901,-4.015522 -2.771275,-2.431936 -4.524531,-5.995004 -1.696699,-3.619625 -1.696699,-8.879393 0,-9.049063 6.786797,-14.195717 6.786797,-5.146654 18.833362,-5.146654 9.162176,0 19.907938,2.431935 v 15.779303 h -3.676182 l -1.979483,-9.275289 q -5.768777,-4.185192 -14.252273,-4.185192 -7.57859,0 -11.876895,3.110616 -4.241748,3.054058 -4.241748,8.483496 0,3.676182 1.696699,6.108117 1.753256,2.431936 4.524531,4.185192 2.827832,1.696699 6.390901,2.940945 3.619625,1.244246 7.352363,2.601606 3.789295,1.300803 7.352364,2.997502 3.619625,1.640143 6.3909,4.241748 2.827832,2.545049 4.524532,6.277787 1.753256,3.676182 1.753256,9.105617 0,10.97199 -6.730241,17.02355 -6.73024,5.99501 -19.398928,5.99501 -6.108117,0 -12.272791,-1.07458 -6.164674,-1.07458 -10.971989,-2.94095 z m 76.695338,21.54808 q -5.42944,0 -8.14416,-3.22373 -2.65816,-3.22373 -2.65816,-9.04907 V 75.956068 h -6.956465 v -2.545049 l 7.069585,-2.205709 5.71222,-12.046565 h 3.56306 V 71.20531 h 12.15968 v 4.750758 h -12.15968 v 36.252812 q 0,3.67618 1.64015,5.54255 1.6967,1.86637 4.41142,1.86637 3.28028,0 7.97448,-0.90491 v 3.67618 q -1.97948,1.35736 -5.71222,2.20571 -3.73274,0.90491 -6.89991,0.90491 z m 29.24432,-27.882429 v 1.01802 q 0,7.804819 1.6967,12.159679 1.75326,4.2983 5.31633,6.56057 3.61962,2.26227 9.44495,2.26227 3.05406,0 7.23925,-0.50901 4.1852,-0.50901 6.89991,-1.13114 v 3.16717 q -2.71471,1.75326 -7.40892,3.05406 -4.63764,1.30081 -9.50151,1.30081 -12.38591,0 -18.15468,-6.67369 -5.71222,-6.67368 -5.71222,-21.434965 0,-13.912934 5.82533,-20.756288 5.82533,-6.843353 16.62765,-6.843353 20.41695,0 20.41695,23.188223 v 4.637644 z m 12.27279,-23.301336 q -5.88189,0 -9.04906,4.750758 -3.11062,4.750758 -3.11062,14.026047 h 22.73577 q 0,-10.123639 -2.6016,-14.421944 -2.60161,-4.354861 -7.97449,-4.354861 z m 47.11621,-20.473504 q 0,2.488492 -1.80981,4.298304 -1.80981,1.809813 -4.35486,1.809813 -2.48849,0 -4.29831,-1.809813 -1.80981,-1.809812 -1.80981,-4.298304 0,-2.545049 1.80981,-4.354862 1.80982,-1.809812 4.29831,-1.809812 2.54505,0 4.35486,1.809812 1.80981,1.809813 1.80981,4.354862 z m -0.56556,66.567169 9.10561,1.41391 v 2.54505 h -27.54308 v -2.54505 l 9.04906,-1.41391 V 75.164275 l -7.52203,-1.413916 V 71.20531 h 16.91044 z m 30.88447,-44.905976 q 4.35486,-2.488492 9.27529,-4.072078 4.92042,-1.640142 8.20071,-1.640142 6.89991,0 10.40642,4.015521 3.50651,4.015522 3.50651,11.650668 v 34.952007 l 6.44746,1.41391 v 2.54505 h -22.90544 v -2.54505 l 7.06958,-1.41391 V 86.475603 q 0,-4.694201 -2.31882,-7.352363 -2.26227,-2.714719 -7.06958,-2.714719 -5.0901,0 -12.49902,1.640142 v 42.360927 l 7.18269,1.41391 v 2.54505 H 216.47 v -2.54505 l 6.3909,-1.41391 V 75.164275 L 216.47,73.750359 V 71.20531 h 15.15718 z m 88.74642,33.707756 q 0,9.72775 9.04906,9.72775 7.01303,0 13.12114,-1.75326 V 75.164275 l -8.03104,-1.413916 V 71.20531 h 17.36289 v 49.20428 l 6.73024,1.41391 v 2.54505 h -15.49652 l -0.45245,-4.2983 q -4.01553,2.20571 -9.27529,3.84585 -5.25977,1.58359 -8.82284,1.58359 -13.57359,0 -13.57359,-15.60964 V 75.164275 l -6.7868,-1.413916 V 71.20531 h 16.1752 z m 59.7849,-33.707756 q 4.35486,-2.488492 9.27529,-4.072078 4.92043,-1.640142 8.20072,-1.640142 6.89991,0 10.40642,4.015521 3.50651,4.015522 3.50651,11.650668 v 34.952007 l 6.44746,1.41391 v 2.54505 h -22.90544 v -2.54505 l 7.06958,-1.41391 V 86.475603 q 0,-4.694201 -2.31883,-7.352363 -2.26226,-2.714719 -7.06958,-2.714719 -5.09009,0 -12.49901,1.640142 v 42.360927 l 7.18269,1.41391 v 2.54505 h -22.962 v -2.54505 l 6.3909,-1.41391 V 75.164275 l -6.3909,-1.413916 V 71.20531 h 15.15718 z m 76.52567,-23.980016 -11.70722,1.470473 v 66.510609 h 14.93095 q 12.04657,0 17.70223,-1.13113 l 3.50651,-15.7793 h 3.67618 l -1.01802,21.7743 h -59.44103 v -2.9975 l 9.72775,-1.52703 V 52.994071 l -9.72775,-1.470473 v -2.997502 h 32.3504 z m 57.74889,2.318823 q 0,2.488492 -1.80981,4.298304 -1.80982,1.809813 -4.35487,1.809813 -2.48849,0 -4.2983,-1.809813 -1.80981,-1.809812 -1.80981,-4.298304 0,-2.545049 1.80981,-4.354862 1.80981,-1.809812 4.2983,-1.809812 2.54505,0 4.35487,1.809812 1.80981,1.809813 1.80981,4.354862 z m -0.56557,66.567169 9.10562,1.41391 v 2.54505 h -27.54308 v -2.54505 l 9.04906,-1.41391 V 75.164275 l -7.52203,-1.413916 V 71.20531 h 16.91043 z m 30.99757,-44.905976 q 4.24175,-2.431935 8.99251,-4.072078 4.75075,-1.640142 8.37038,-1.640142 3.90241,0 7.18269,1.470472 3.33685,1.470473 4.97699,4.694202 4.35486,-2.431936 10.18019,-4.298305 5.88189,-1.866369 9.72775,-1.866369 13.57359,0 13.57359,15.666189 v 34.952007 l 6.84335,1.41391 v 2.54505 h -24.14968 v -2.54505 l 7.91793,-1.41391 V 86.475603 q 0,-9.727742 -9.04907,-9.727742 -1.47047,0 -3.44995,0.226226 -1.92293,0.226227 -3.90241,0.50901 -1.92292,0.282783 -3.73274,0.67868 -1.75325,0.339339 -2.94094,0.565566 0.96146,3.054059 0.96146,6.73024 v 34.952007 l 7.97449,1.41391 v 2.54505 h -25.22427 v -2.54505 l 7.86138,-1.41391 V 86.475603 q 0,-4.694201 -2.43194,-7.182694 -2.37538,-2.545048 -7.18269,-2.545048 -4.97699,0 -12.38591,1.640142 v 42.021587 l 7.97449,1.41391 v 2.54505 h -24.09313 v -2.54505 l 6.73024,-1.41391 V 75.164275 l -6.73024,-1.413916 V 71.20531 h 15.55308 z m 94.34104,-21.661193 q 0,2.488492 -1.80981,4.298304 -1.80982,1.809813 -4.35486,1.809813 -2.4885,0 -4.29831,-1.809813 -1.80981,-1.809812 -1.80981,-4.298304 0,-2.545049 1.80981,-4.354862 1.80981,-1.809812 4.29831,-1.809812 2.54504,0 4.35486,1.809812 1.80981,1.809813 1.80981,4.354862 z m -0.56557,66.567169 9.10562,1.41391 v 2.54505 h -27.54308 v -2.54505 l 9.04906,-1.41391 V 75.164275 l -7.52203,-1.413916 V 71.20531 h 16.91043 z m 31.45002,5.0901 q -5.42943,0 -8.14415,-3.22373 -2.65816,-3.22373 -2.65816,-9.04907 V 75.956068 h -6.95647 v -2.545049 l 7.06958,-2.205709 5.71222,-12.046565 h 3.56307 V 71.20531 h 12.15968 v 4.750758 h -12.15968 v 36.252812 q 0,3.67618 1.64014,5.54255 1.6967,1.86637 4.41142,1.86637 3.28028,0 7.97449,-0.90491 v 3.67618 q -1.97949,1.35736 -5.71222,2.20571 -3.73274,0.90491 -6.89992,0.90491 z m 29.24432,-27.882429 v 1.01802 q 0,7.804819 1.6967,12.159679 1.75325,4.2983 5.31632,6.56057 3.61963,2.26227 9.44496,2.26227 3.05406,0 7.23925,-0.50901 4.18519,-0.50901 6.89991,-1.13114 v 3.16717 q -2.71472,1.75326 -7.40892,3.05406 -4.63764,1.30081 -9.50152,1.30081 -12.3859,0 -18.15468,-6.67369 -5.71222,-6.67368 -5.71222,-21.434965 0,-13.912934 5.82534,-20.756288 5.82533,-6.843353 16.62765,-6.843353 20.41695,0 20.41695,23.188223 v 4.637644 z m 12.27279,-23.301336 q -5.88189,0 -9.04906,4.750758 -3.11062,4.750758 -3.11062,14.026047 h 22.73577 q 0,-10.123639 -2.6016,-14.421944 -2.60161,-4.354861 -7.97449,-4.354861 z m 66.57169,46.093665 q -6.39091,5.0901 -14.93096,5.0901 -21.77431,0 -21.77431,-27.203749 0,-13.96949 6.16468,-21.208741 6.16467,-7.295806 18.15468,-7.295806 6.10812,0 12.38591,1.300802 -0.33934,-1.866369 -0.33934,-9.388402 V 47.903973 l -8.93595,-1.357359 v -2.545049 h 18.32435 v 76.408025 l 6.56057,1.41391 v 2.54505 H 779.36703 Z M 752.16329,98.295941 q 0,10.745759 3.61963,16.062089 3.61962,5.25977 11.0851,5.25977 6.3909,0 11.481,-2.20571 V 75.390501 q -5.03355,-0.961463 -11.481,-0.961463 -14.70473,0 -14.70473,23.866903 z"
       transform="matrix(0.73672,0,0,1.3573678,15.54357,-3.8261901)"
       class="fromclone"
       style="font-size:115.828px;line-height:1.6;font-family:Cantarell;-inkscape-font-specification:Cantarell;letter-spacing:1.24878px;display:inline;opacity:0.70603;mix-blend-mode:normal;fill:url(#linearGradient16);stroke:none;stroke-width:1.757;stroke-dasharray:none;stroke-opacity:1;paint-order:normal"
       inkscape:label="purple" />
  </g>
</svg>
